<?xml version="1.0" encoding="UTF-8"?>
<svg id="Layer_2" data-name="Layer 2" xmlns="http://www.w3.org/2000/svg" viewBox="0 0 333.43 86.03">
  <defs>
    <style>
      .cls-1 {
        fill: #e8662b;
      }

      .cls-1, .cls-2, .cls-3, .cls-4, .cls-5, .cls-6 {
        stroke-width: 0px;
      }

      .cls-7 {
        opacity: .98;
      }

      .cls-2 {
        fill: #964a44;
      }

      .cls-3 {
        fill: #39190f;
      }

      .cls-4 {
        fill: #391910;
      }

      .cls-5 {
        fill: #3c854e;
      }

      .cls-6 {
        fill: #442420;
      }
    </style>
  </defs>
  <g id="Layer_1-2" data-name="Layer 1">
    <g>
      <g>
        <path class="cls-2" d="M177.29,24.43c-1.64.41-3.18,1.19-4.84,1.46-1.66.27-3.59-.12-4.54-1.56-.22-.33-.38-.76-.21-1.13.16-.35.54-.5.89-.63,2.18-.77,4.33-1.61,6.46-2.51.9-.38,1.9-.89,2.18-1.86.17-.59.03-1.22-.11-1.81-.25-1.07-.51-2.14-.76-3.2-.06-.26-.13-.53-.34-.69-.31-.24-.74-.09-1.09.06-2.14.87-4.45,1.31-6.74,1.29-.75,0-1.68.05-1.99.76-.25.58.09,1.24.38,1.8.61,1.16,1.07,2.43,1.07,3.75s-.51,2.68-1.53,3.45c-1.52-2.75-2.95-5.56-4.3-8.4-1.91.84-3.83,1.68-5.87,2.08s-4.21.35-6.09-.55c-.42-.2-.83-.46-1.09-.85s-.33-.97-.05-1.35c.16-.22.4-.35.63-.46,3.75-1.82,8.36-1.12,11.95-3.27-2.66.28-5.28-.6-7.82-1.47-.8-.27-1.64-.57-2.25-1.18-.31-.31-.57-.76-.46-1.2.17-.71,1.07-.84,1.77-.81,4.67.24,9.33,1.65,13.94.91-2.98-1.05-5.81-2.59-8.35-4.54-.25-.19-.51-.4-.63-.7s-.06-.71.21-.86c.18-.1.4-.06.61-.02,4.32.85,8.45,2.65,12.81,3.26,2.08.29,4.2.3,6.24.8,2,.49,3.86,1.43,5.7,2.36,1.49.75,2.97,1.5,4.46,2.26.53.27,1.08.55,1.49.99.67.72.9,1.75,1.1,2.73.29,1.39.57,2.86.14,4.21-.64,2.02-2.84,4.99-4.83,5.8-2.5,1.01-5.52.43-8.13,1.09Z"/>
        <g>
          <g>
            <path class="cls-3" d="M154.17,60.5c.36-.21.68-.53.89-.9.11-.19.31-.38.25-.62-.04-.23-.15-.47-.47-.66-.27-.01-.6.41-.65.49-.1.14,0,.32,0,.5,0,.17-.01.35-.03.54,0,.19-.05.38-.09.58l.09.07h0Z"/>
            <g>
              <path class="cls-1" d="M161.16,55.77c0,2.96-15.62,22.21-30.64,4.09-7.93-13.78,4.37-19.63,13.6-22.59,6.39-2.96,19.88,5.92,17.04,18.51Z"/>
              <path class="cls-6" d="M141.1,49.81c.81-3.23,4.33-5.02,7.39-4.56,4.66.62,6.53,6.78,4.45,10.76-3.87,7.62-14.88,6.75-18.85-.34-3.51-6.09-.94-13.89,5.03-16.98,5.41-3,12.47-2.5,17.3,1.49,4.77,4.04,6.8,11.27,4.47,17.33-3.28,8.21-12.81,12.06-20.85,10.13-11.39-2.4-17.4-14.58-12.01-25.47,5.64-10.76,18.14-7.68,27.65-10.03,3.75-.96,7.48-2.88,9.44-6.51,0,0,.19.1.19.1-2.66,5.98-9.46,8-15.26,8.78-5.4.72-12.24.91-16.6,4.41-2.96,2.29-4.69,6.01-5.03,9.81-1.4,13.2,12.28,20.64,23.16,16.04,3.48-1.5,6.64-4.14,8.24-7.75,3.32-7.5-1.13-17.18-8.98-18.97-7.18-2.07-16.69,2.73-16.55,11.2-.21,8.18,9.46,13.41,15.58,8.13,2.85-2.32,3.47-7.19.81-9.89-2.57-2.61-7.95-1.51-9.36,2.38l-.2-.07h0Z"/>
              <path class="cls-6" d="M161.4,26.51c0,.07.09.1.13.09.03-.05-.02-.14,0-.16.35-.32,1.01-.61,1.5-.7.38-.05.82.02,1.2-.07.5-.11.91-.48,1.26-.86.91,1.72,1.49,3.63.99,5.6,0,0-.14.04-.14.04-1.25-1.32-1.62-3.22-1.3-5l.51.28c-.89.07-1.45.71-2.13,1.21-.6.32-1.22.37-1.89.29-.31-.03-.61-.42-.4-.73.04-.08.17-.16.25-.12v.15h.01Z"/>
              <g>
                <g>
                  <path class="cls-5" d="M137.75,31.03c-2.42.33-4.76,1.19-7.05,2.14.2.86.05,1.8-.39,2.55-.76-.15-1.52-.31-2.28-.46-.53-.11-1.08-.22-1.61-.09-.68.16-1.25.67-1.77,1.19-3.84,3.88-6.49,9.14-7.43,14.73-.02.13-.04.28.02.39.08.14.26.16.42.17,8.63.31,17.35-1.83,25.1-6.15,1.65-.92,3.26-1.94,4.66-3.28.84-.81,1.61-1.75,2.04-2.88s.49-2.47-.05-3.52c-.9-1.76-3.43-3-5.02-3.93-1.95-1.14-4.48-1.16-6.64-.85Z"/>
                  <path class="cls-6" d="M137.77,31.14c-2.43.33-4.72,1.31-6.91,2.43l.25-.51c.34,1.09.14,2.34-.45,3.35-.28-.03-2.46-.31-2.8-.35-1.48-.39-2.18.6-3.18,1.68-2.57,2.89-4.77,6.14-6.15,9.89-.46,1.12-.76,2.62-1.01,3.63,1.64.14,3.43.03,5.09-.12,6.13-.73,12.07-2.77,17.58-5.57,3.22-1.84,8.91-4.46,8.61-8.68-.11-1.13-1.25-2.26-2.47-3.17-1.24-.87-2.48-1.92-3.96-2.36-1.47-.42-3.06-.45-4.59-.23h0ZM137.74,30.92c1.55-.22,3.14-.34,4.73-.06,1.6.26,3.01,1.09,4.48,1.79,2.68,1.26,4.6,3.56,3.59,6.79-2.1,6.2-12.79,9.93-18.46,11.36-4.64,1.04-9.41,1.27-14.14,1.18-.2-.02-.36.05-.72-.09-.33-.13-.41-.64-.32-.92.72-4.51,2.1-8.97,4.81-12.68,1.56-1.95,3.59-4.94,6.45-3.85,0,0,2.27.64,2.27.64l-.65.3c.41-.56.62-1.35.52-2.11l-.06-.41c2.46-.79,4.95-1.58,7.5-1.94h0Z"/>
                </g>
                <path class="cls-6" d="M147.35,34.05c-3.16,1.14-6.45,1.68-9.54,2.98-3.85,1.95-7.44,4.3-11.1,6.61,0,0-.04-.06-.04-.06,3.4-3.6,7.89-5.67,12.39-7.32.77-.32,1.86-.83,2.66-1.14,1.73-.56,3.92-1.21,5.64-1.07h0Z"/>
                <path class="cls-6" d="M134.67,34.73l-.3.28-.06-.14c1.7-.6,3.74-1.3,5.43-.34,0,0-.01.07-.01.07-.47.12-.92.16-1.37.19-1.34,0-2.67-.07-4.02.22,0,0-.39.07-.39.07.17-.11.51-.32.67-.43l.04.06h0Z"/>
                <path class="cls-6" d="M139.25,40.36c.1-.66.05-1.31.16-1.94.05-.12.27-.6.47-.58.32.45.26.91.03,1.35-.16.42-.36.82-.59,1.19l-.07-.02h0Z"/>
              </g>
            </g>
          </g>
          <g>
            <g class="cls-7">
              <path class="cls-6" d="M181.88,24.01c-2.34.39-4.7.78-6.95,1.43-1.11.33-2.21.87-3.44,1.09-1.88.45-4.4-.47-4.71-2.72-.15-.9.34-1.64,1.21-1.87,0,0,3.37-1.19,3.37-1.19l3.37-1.18c1.03-.36,1.92-.89,2.05-2.07.21-1.58-.58-3.62-.95-5.24-.39-2.03-1.94-2.66-3.72-1.99-1.89.81-3.57,2.15-5.19,3.44-1.78,1.22-.07,2.36.57,3.66.85,1.69,1,3.89.1,5.59-.7,1.18-1.95,1.32-2.52-.04,0,0-.42-.82-.42-.82-.81-1.59-1.72-3.33-2.51-4.92-.39-.86-1.01-1.72-1.07-2.75-.07-1.8,1.35-3.1,2.49-4.17,2.64-2.48,5.7-5.16,9.44-5.58,2.5-.28,4.86.66,7.18,1.35,2.01.66,4.84,1.49,6.83,2.16.61.21,1.27.56,1.7,1.1.45.54.71,1.14.98,1.69,1.63,3.06,1.77,6.15-.28,9.06-1.16,1.47-2.67,2.52-4.17,3.55,0,0-.06-.09-.06-.09,1.38-1.12,2.83-2.26,3.85-3.73,1.77-2.87,1.52-5.5-.1-8.38-.52-1.09-1.03-1.94-2.21-2.24,0,0-3.42-.98-3.42-.98l-3.43-1c-2.21-.62-4.46-1.5-6.74-1.26-3.48.42-6.26,2.8-8.87,5.17-1.11,1.05-2.73,2.35-2.08,4.07.2.51.5,1.09.75,1.64.76,1.6,1.59,3.39,2.33,5.01.19.35.49,1.25.79,1.44.4.24.86-.21,1.1-.57.85-1.53.77-3.54.01-5.11-.38-.87-1.17-1.47-1.36-2.44-.17-1.1.95-1.65,1.61-2.25,1.45-1.11,2.87-2.27,4.53-3.04,2.04-.89,3.98-.09,4.54,2.21,0,0,.55,1.78.55,1.78,2.03,6.05-.66,6.27-5.36,7.89,0,0-3.38,1.15-3.38,1.15-.28.09-.47.18-.53.28-.3.58.11,1.42.6,1.85.81.75,1.94.94,3.02.77,1.12-.16,2.22-.63,3.41-.92,1.17-.29,2.36-.46,3.54-.61,1.18-.15,2.37-.27,3.55-.35v.11h.01Z"/>
            </g>
            <g class="cls-7">
              <path class="cls-6" d="M176,5c-5.22-.09-10.43-1.16-15.29-3.18-.56-.21-1.22-.55-1.76-.73-.51-.17-.81.17-.71.26.02.24.64.77,1.09,1.17,2.42,2.15,5.29,3.57,8.48,4.26v.11c-2.64.08-5.31-.76-7.59-2.23-.86-.55-1.66-1.21-2.37-1.95-.24-.27-.55-.57-.68-1.14-.18-.87.65-1.62,1.44-1.57.57,0,1.12.33,1.57.55,2.61,1.3,5.36,2.3,8.18,3.03,2.5.66,5.07,1.1,7.66,1.3v.11h0Z"/>
            </g>
            <g class="cls-7">
              <path class="cls-6" d="M166.19,6.89c-3.17.46-6.44.39-9.61-.23-1.25-.26-2.45-.47-3.72-.38-.62.03-1.23.1-1.64.37-.9.64-.15,1.93.74,2.21,3.6,1.02,7.41,1.31,11.17,1.59,0,0,0,.11,0,.11-2.54.46-5.15.48-7.73.2-1.64-.28-3.5-.28-4.83-1.54-.91-.88-1.02-2.7.18-3.36.71-.41,1.43-.4,2.07-.42,1.96-.07,3.83.64,5.73.96,2.5.45,5.06.56,7.6.37v.11h.01Z"/>
            </g>
            <g class="cls-7">
              <path class="cls-6" d="M162.65,10.27c-2.24,1.15-4.69,1.9-7.19,2.24-1.25.16-2.49.25-3.66.56-1.47.3-4.61,2.19-1.78,3.23,2.62.76,5.37.42,8.01-.11,1.21-.25,2.42-.55,3.66-.8l.03.11c-3.65,1.77-8.05,3.33-12.07,1.81-1.09-.4-2.21-1.66-1.46-2.89.78-1.21,2.15-1.78,3.45-2.07,1.27-.27,2.53-.3,3.76-.4,2.46-.18,4.9-.79,7.2-1.77l.05.1h0Z"/>
            </g>
            <g class="cls-7">
              <path class="cls-6" d="M166.48,14.26c.1.15.28.18.46.17.56-.06,1.13-.26,1.68-.39,1.51-.34,2.97-.91,4.46-1.28.74-.14,1.44-.27,2.22-.5l.07.09c-.93,1.5-2.77,1.8-4.33,1.97-1.17.18-2.34.3-3.52.36-.38.02-.94.08-1.15-.36l.1-.06h0Z"/>
            </g>
          </g>
        </g>
      </g>
      <g>
        <g>
          <path class="cls-2" d="M22.72,57.61v-5.53h6.13c4.43,0,6.34,2.56,6.55,5.51,2.46,0,4.92-.02,7.38-.02-.25-6.93-5.18-11.57-13.25-11.57h-14.23v11.62c2.48,0,4.95,0,7.43,0Z"/>
          <path class="cls-6" d="M22.65,57.54c-.14-1.79-.44-4.23-.52-5.97,2.1-.15,4.37-.23,6.48-.29,3.84-.35,7.61,2.15,7.59,6.26,0,0-.79-.74-.79-.74,2.15.1,5.25.29,7.38.38,0,0-.39.4-.39.4-.02-8.26-7.05-11.3-14.37-10.67-4.11.08-8.64.21-12.73.13,0,0,1.04-1.04,1.04-1.04-.02,1.94-.07,3.87-.14,5.81-.07,1.94-.14,3.87-.27,5.81l-.64-.64c2.03.12,5.27.39,7.36.56h0ZM22.79,57.68c-2.48.22-5.61.5-8.1.62-.15-2.16-.23-4.33-.31-6.49-.08-2.27-.13-4.56-.15-6.84l1.06-.02c4.08-.09,8.62.05,12.73.13,7.9-.35,14.65,4.19,15.14,12.47,0,0,.03.38.03.38l-.42.02c-2.11.12-5.23.3-7.38.43,0,0-.7.04-.7.04l-.1-.78c-.24-3.14-3.02-4.86-6-4.75-1.9-.05-4-.13-5.89-.25,0,0,.56-.56.56-.56-.09,1.7-.33,3.91-.49,5.6h0Z"/>
        </g>
        <g>
          <path class="cls-2" d="M22.72,73.86v-3.56h6.85c7.78,0,12.65-4.36,13.18-10.97-2.48,0-4.95.02-7.43.02-.44,2.71-2.43,4.87-6.57,4.87h-6.04v-4.85c-2.48,0-4.95,0-7.43,0v14.58c2.48-.01,4.95-.04,7.43-.09Z"/>
          <path class="cls-6" d="M22.65,73.79c-.02-.19-.37-3.81-.37-3.87,5.23-.59,11.14.38,15.57-2.95,2.54-1.76,4.06-4.58,4.48-7.68,0,0,.42.45.42.45-2.48-.11-4.95-.12-7.43-.08l.31-.27c-.75,4.86-4.98,5.63-9.16,5.6-.64.02-4.08.13-4.65.15,0,0-.02-.93-.02-.93l-.09-4.85,1,1c-2.48.06-4.95.09-7.43.09l1.07-1.07c-.06,4.86-.17,9.72-.45,14.58l-.62-.62c2.03.1,5.26.31,7.36.46h0ZM22.79,73.93c-2.47.23-5.6.55-8.08.68-.16-2.65-.27-5.3-.35-7.95-.09-2.78-.12-5.57-.16-8.36h1.09c2.81-.02,5.63.01,8.44.09,0,.55-.1,5.15-.11,5.82,0,0-.9-.9-.9-.9l3.76.12c2.39.06,4.92.49,6.85-1.14.97-.77,1.54-2.01,1.73-3.27,0,0,.27,0,.27,0,2.62.03,5.24,0,7.86-.14.12,4.71-2.66,9.64-7.3,11.19-4.21,1.63-8.78.83-13.16.64,0,0,.41-.41.41-.41-.09,1.28-.22,2.53-.34,3.63h0Z"/>
        </g>
        <g>
          <path class="cls-2" d="M15.29,75.7v6.24h7.43v-6.33c-2.48.05-4.95.08-7.43.09Z"/>
          <path class="cls-6" d="M15.36,75.77c.43,2.3.87,3.98.82,6.17,0,0-.89-.89-.89-.89,1.24.06,2.48.42,3.71.53,1.24.12,2.48.01,3.71-.19l-.54.54c-.37-2.1-.49-4.21-.53-6.33,0,0,1.1,1.07,1.1,1.07-2.52,0-4.7-.49-7.38-.92h0ZM15.22,75.63c2.58-.72,5.76-1.14,8.57-1.1.02,2.48-.11,4.96-.53,7.41,0,0-.1.61-.1.61l-.44-.07c-2.79-.66-5.5.26-8.26.39-.2-2.32.11-5.11.76-7.24h0Z"/>
        </g>
        <g>
          <rect class="cls-2" x="46.31" y="46" width="6.85" height="7.05"/>
          <path class="cls-6" d="M53.09,46.07c-2.52.44-4.39.96-6.78.77,0,0,.84-.84.84-.84-.39,2.34-.8,4.68-.29,7.05,0,0-.55-.55-.55-.55,2.27-.38,4.56-.52,6.85-.52,0,0-1.07,1.07-1.07,1.07.06-2.1.51-4.16,1-6.98h0ZM53.23,45.92c.58,2.11,1.03,5.41,1.03,8.17-2.66.07-5.32-.06-7.95-.5,0,0-.62-.1-.62-.1l.07-.44c.59-2.62-.07-5.19-.37-7.79,2.5-.35,5.53.01,7.84.68h0Z"/>
        </g>
        <g>
          <path class="cls-2" d="M53.16,72.68v-13.39c-2.28,0-4.57.01-6.85.02v13.72c2.28-.11,4.57-.23,6.85-.34Z"/>
          <path class="cls-6" d="M53.09,72.61c-.64-4.8-1.14-8.72-.4-13.32,0,0,.48.48.48.48-2.29-.27-4.57-.19-6.85.07l.53-.53c.5,4.55.69,9.15.39,13.72,0,0-.97-.92-.97-.92,2.07.03,4.22.29,6.83.51h0ZM53.23,72.75c-2.17.5-5.11,1.05-7.77,1.29-.33-3.76-.23-7.54,0-11.3.08-1.33.25-2.68.38-4.01,2.58.3,5.17.39,7.74.03.71,4.48.46,9.7-.35,13.99h0Z"/>
        </g>
        <g>
          <path class="cls-2" d="M46.31,74.77v7.17h6.85v-7.51c-2.28.12-4.57.23-6.85.34Z"/>
          <path class="cls-6" d="M46.38,74.84c.44,2.41.98,4.71.75,7.1,0,0-.83-.83-.83-.83,2.27.4,4.55.76,6.85.3,0,0-.52.52-.52.52-.41-2.49-.58-5-.54-7.51,0,0,1.12,1.06,1.12,1.06-2.05.02-4.1-.3-6.84-.65h0ZM46.23,74.7c2.06-.68,5.24-1.26,7.94-1.42.15,2.89-.03,5.8-.49,8.66,0,0-.1.59-.1.59l-.43-.07c-2.55-.53-5.06.04-7.58.39-.36-2.71-.06-5.58.66-8.15h0Z"/>
        </g>
        <g>
          <path class="cls-2" d="M53.16,57.54v-.23h-6.85v.25c2.28,0,4.57-.01,6.85-.02Z"/>
          <path class="cls-6" d="M53.09,57.46c-.05-.1-.13-.14-.17-.16l.24.24c-.57.31-1.14.47-1.71.57-1.23.34-2.28-.28-3.43-.49-.57-.06-1.14.05-1.71.23l.54-.54.08.25-.62-.62c2.47-.83,4.05-.22,6.78.53h0ZM53.23,57.61c-2,1.2-5.38,1.21-7.66.33.05-.15.14-.48.19-.63,0,0,.2-.65.2-.65.67.22,1.38.42,2.06.34.57-.05,1.14-.34,1.71-.49,1.18-.24,2.33.03,3.43.57,0,0,.27.14.27.14-.03.14-.13.33-.19.39h0Z"/>
        </g>
        <g>
          <path class="cls-2" d="M75.96,57.46c-1.48-.53-3.11-.82-4.83-.82-1.81,0-3.49.31-5.03.85,3.28-.01,6.57-.02,9.85-.03Z"/>
          <path class="cls-6" d="M75.86,57.44c-.18-.02-.23.14-.27.14-.71.04-1.49.03-2.18.02-1.64.12-3.2-.47-4.82-.43-.82.09-1.6.4-2.29.86l-.19-1.1c3.32-1.02,6.36.44,9.76.52h0ZM76.06,57.47c-3.08.62-6.75,1.41-9.95.59,0,0-3.26-.73-3.26-.73,1.59-.21,4.11-.42,5.63-.78.83-.19,1.66-.59,2.55-.73,1.74-.2,3.85.35,5.03,1.66h0Z"/>
        </g>
        <g>
          <path class="cls-2" d="M64.51,72.08c-.27-.77-.43-1.61-.43-2.5,0-3.83,2.92-6.85,7.05-6.85,2.88,0,5.18,1.58,6.18,3.79h6.42c-.61-3.1-2.23-5.6-4.51-7.31-5.49.02-10.98.04-16.47.06-3.2,2.34-5.14,6.04-5.14,10.32,0,.99.11,1.94.3,2.85,2.2-.12,4.4-.24,6.6-.36Z"/>
          <path class="cls-6" d="M64.43,72.02s-.07-.03-.08-.06c-.16-.36-.32-.74-.41-1.12-1.6-5.8,4.35-10.5,9.81-8.58,1.9.62,3.49,2.13,4.19,3.97l-.62-.4c2.14.12,4.28.3,6.42.35l-.32.39c-.46-2.81-2.11-5.42-4.49-6.97,0,0,.31.1.31.1-3.83.27-8.51.46-12.35.52-1.37.03-2.75.09-4.12.09l.62-.21c-3.79,2.76-5.53,7.56-4.85,12.19,0,0-.65-.5-.65-.5,2.17.02,4.29.19,6.55.22h0ZM64.6,72.13c-2.19.32-4.93.76-7.14.99-1.75-5.21.09-11.53,4.68-14.72,0,0,.27-.2.27-.2h.35c5.39.04,11.28.17,16.67.51,2.5,2.04,4.11,4.99,4.72,8.13,0,0-.41.01-.41.01-2.27.06-4.54.26-6.81.38,0,0-.23-.42-.23-.42-2.35-4.35-9.45-4.21-11.55.32-.78,1.52-.84,3.35-.54,5.02h0Z"/>
        </g>
        <g>
          <path class="cls-2" d="M77.14,73.16c-1.1,2.03-3.23,3.41-6,3.41-2.46,0-4.49-1.08-5.73-2.8-2.33.13-4.67.25-7,.38,1.79,5.05,6.55,8.51,12.73,8.51s11.45-3.69,12.6-9.73h-1.85c-1.59.07-3.17.15-4.76.23Z"/>
          <path class="cls-6" d="M77.19,73.24c-1.78,5.07-9.66,5.4-12.51,1.05,0,0,.77.37.77.37-2.34.08-4.68-.05-7.02-.09l.37-.56c.72,2.63,2.63,4.93,5.03,6.18,6.99,3.68,17.24.8,19.2-7.39,0,0,.71.86.71.86-1.8-.14-4.72-.27-6.55-.41h0ZM77.08,73.07c2.36-.44,5.03-.82,7.48-.93,0,0-.11.92-.11.92-1.13,9.93-13.63,13.41-21.11,7.92-2.53-1.8-4.39-4.32-5.54-7.18,0,0,.59-.07.59-.07,2.48-.31,4.95-.71,7.44-.88,2.46,3.84,8.58,3.99,11.27.22h0Z"/>
        </g>
        <g>
          <path class="cls-2" d="M94.76,57.4v-11.4h-6.85v11.42c2.28,0,4.57-.01,6.85-.02Z"/>
          <path class="cls-6" d="M94.69,57.33c-.57-4.12-1.16-7.4-.48-11.33,0,0,.55.55.55.55-2.28-.35-4.57-.31-6.85,0,0,0,.55-.55.55-.55.46,3.79.64,7.61.42,11.42,0,0-.97-.97-.97-.97,1.84.11,4.9.6,6.79.88h0ZM94.84,57.47c-2.43.49-5.24.86-7.83.97-.25-3.19-.16-6.4.06-9.59.08-1.15.24-2.31.37-3.46,2.6.37,5.21.42,7.8-.01.69,3.85.36,8.43-.4,12.09h0Z"/>
        </g>
        <g>
          <path class="cls-2" d="M110.78,57.38l.04-.07h-7.43l-.05.08c2.48,0,4.96,0,7.43,0Z"/>
          <path class="cls-6" d="M110.73,57.29c-.11-.2.09.16.09.17-.62.36-1.24.52-1.86.64-1.32.36-2.48-.22-3.71-.47-.62-.06-1.24.04-1.86.22l.47-.27-.02.09-.49-.86c2.51-.84,4.9-.45,7.38.48h0ZM110.83,57.46c-2.56,1.41-5.84,1.1-8.54.17,0,0,.57-.54.57-.54l.07-.07.33-.31c.66.21,1.33.33,2,.27.62-.06,1.24-.37,1.86-.51,1.36-.21,2.73.1,3.95.81-.07.05-.15.15-.23.17h0Z"/>
        </g>
        <g>
          <path class="cls-2" d="M104.85,70.42l-.98-1.76,5.83-9.53c-2.46,0-4.93,0-7.39,0l-4.29,7.27h-3.26v-7.26s-.03,0-.04,0c-2.27,0-4.54.01-6.81.02v11.75c5.65-.23,11.29-.41,16.94-.5Z"/>
          <path class="cls-6" d="M104.77,70.37c-.46-.67-.89-1.13-1.25-1.68,1.66-3.42,3.51-6.74,5.44-10.01,0,0,.74,1.33.74,1.33-1.23.03-2.46.04-3.7.02-1.23-.02-2.46-.07-3.7-.15l.63-.36c-1.43,2.14-3.46,5.03-4.74,7.22-1.14-.03-2.29,0-3.43,0h-.32c-.04-2.53-.21-5.06-.35-7.58l.67.66c-2.29.15-4.57.24-6.85.29l.93-.93c.09,3.92.21,7.83.11,11.75l-1.08-1.03c5.66-.08,11.05.35,16.9.49h0ZM104.94,70.47c-5.52.55-12.51,1.37-18.04,1.52-.15-4.59,0-9.18.1-13.77,2.82.04,5.64.12,8.46.3-.14,2.63-.32,5.25-.37,7.88l-.32-.32c1.09.01,2.17.03,3.26.01l-.27.15c.71-1.22,1.37-2.46,2-3.72l1.92-3.77.17-.33.46-.03c2.97-.21,5.98-.2,8.95-.12-2.24,3.59-4.58,7.14-7.12,10.53,0,0,0-.31,0-.31.33.69.57,1.4.8,1.96h0Z"/>
        </g>
        <g>
          <path class="cls-2" d="M98.48,72.31l5.2,9.63h7.62l-5.47-9.78c-2.45.03-4.9.09-7.35.15Z"/>
          <path class="cls-6" d="M98.56,72.36c2.25,3.36,4.39,5.65,5.68,9.28,0,0-.56-.34-.56-.34,2.53.42,5.08.43,7.62.09,0,0-.48.82-.48.82-.98-1.3-2.26-3.27-3.12-4.67-1-1.58-1.91-3.21-2.74-4.89,0,0,.88.51.88.51-2.33-.09-4.89-.61-7.28-.79h0ZM98.39,72.26c2.48-.45,5.44-1.02,7.98-1.14,2.07,3.31,3.94,6.93,5.41,10.55,0,0,.38.92.38.92-2.92-.43-5.86-.48-8.77.03-2.29-2.89-3.88-7.09-5-10.36h0Z"/>
        </g>
        <g>
          <path class="cls-2" d="M87.91,72.67v9.27h6.85v-9.52c-2.28.07-4.57.16-6.85.25Z"/>
          <path class="cls-6" d="M87.98,72.74c.51,3.37,1.11,5.99.62,9.2,0,0-.69-.69-.69-.69,2.28.43,4.56.51,6.85.16,0,0-.53.53-.53.53-.43-3.15-.64-6.35-.49-9.52,0,0,1.05,1.02,1.05,1.02-2.05-.04-4.13-.37-6.81-.7h0ZM87.84,72.6c2.1-.57,5.19-1.12,7.87-1.28.27,3.54.06,7.11-.42,10.62,0,0-.08.59-.08.59-2.63-.46-5.27-.32-7.89.19-.59-3.22-.21-7.08.51-10.12h0Z"/>
        </g>
        <g>
          <path class="cls-2" d="M122.63,82.5c-2.71,0-4.63-1.93-4.63-4.46s1.91-4.41,4.63-4.41,4.63,1.93,4.63,4.41-1.91,4.46-4.63,4.46ZM122.63,80.43c1.41,0,2.42-1.03,2.42-2.39s-1.01-2.34-2.42-2.34-2.42,1.03-2.42,2.34,1.01,2.39,2.42,2.39Z"/>
          <g>
            <path class="cls-6" d="M122.63,82.55c-4.57.2-6.84-4.68-3.39-7.82,3.04-2.8,8.63-1.19,8.54,3.33.08,2.81-2.59,4.64-5.16,4.49h0ZM122.63,82.45c5.38-.22,5.47-8.27,0-8.55-5.83-.49-5.35,8.51,0,8.55h0Z"/>
            <path class="cls-6" d="M122.63,80.38c2.44-.04,2.95-4.85,0-4.4-2.54.29-2.49,4.22,0,4.4h0ZM122.63,80.48c-4,.28-3.83-5.36,0-5.05,3.5.48,4.01,5.13,0,5.05h0Z"/>
          </g>
        </g>
        <g>
          <path class="cls-2" d="M128.91,85.53v-1.81h.87c.44,0,.69-.23.69-.72v-7.29h-1.45v-1.85h1.45v-1.41c0-1.5.9-2.45,2.81-2.45h1.08v1.81h-.85c-.44,0-.7.23-.7.72v1.32h1.55v1.85h-1.55v7.37c0,1.5-.9,2.45-2.81,2.45h-1.08Z"/>
          <path class="cls-6" d="M128.87,85.56c-.06-.61-.13-1.34-.18-2.03.34-.04.99-.03,1.28-.11.2-.08.18-.3.16-.74-.11-2.32-.16-4.65-.1-6.97,0,0,.42.42.42.42-.61-.01-1.22-.06-1.83-.08,0,0,.02-.34.02-.34,0-.17.1-2.01.11-2.13.12.01,1.54.07,1.71.08,0,0-.19.19-.19.19l.05-1.7c.15-2.32,2.49-2.44,4.29-2.45.02.44.09,2,.12,2.44-.23,0-.96.05-1.2.05-.23.02-.25.06-.28.14-.04.24.02,1.18.02,1.51,0,0-.46-.46-.46-.46.34,0,1.71-.03,2.03-.04,0,.31.04,1.99.04,2.34v.52c-.33,0-1.7.01-2.07.02l.53-.53c.01,2.12-.05,4.23-.12,6.35.18,3.11-1.5,3.98-4.34,3.51h0ZM128.95,85.49c2.58-.15,3.78-.58,3.44-3.44-.08-2.29-.14-4.59-.12-6.89.36,0,1.7.01,2.08.02l-.52.52.03-1.85.49.49c-.35,0-1.7-.03-2.02-.04v-.45c.1-.69-.22-1.9.6-2.32.4-.21,1.01-.07,1.42-.08,0,0-.36.36-.36.36l.09-1.81.27.27c-3-.3-4.03.53-3.69,3.59,0,0,0,.19,0,.19-.06,0-1.54.07-1.65.08,0,0,.27-.27.27-.27l.09,1.85-.36-.36c.61-.03,1.25-.07,1.86-.07.08,2.47.03,4.94-.08,7.4.02.42-.08,1.13-.63,1.25-.46.11-.82-.01-1.24-.01,0,0,.2-.2.2-.2l-.16,1.78h0Z"/>
        </g>
        <g>
          <path class="cls-2" d="M143.04,75.7v6.55h-2.34v-6.55h-1.45v-1.85h1.45v-2.35h2.34v2.35h1.47v1.85h-1.47Z"/>
          <path class="cls-6" d="M143.07,75.74c.25,2.57.43,4.69.41,6.97-.93,0-1.86-.01-2.79-.09l-.38-.03.02-.33c.18-2.18.29-4.37.12-6.55,0,0,.24.24.24.24-.21.01-1.58.1-1.76.11-.06-.73-.09-1.47-.12-2.2,0,0-.02-.41-.02-.41l.45-.02c.48-.03.97-.03,1.45-.05l-.47.47c0-.37-.06-2.56-.07-2.88,0,0,.54,0,.54,0,.95,0,1.91,0,2.86.03,0,.95-.05,1.91-.09,2.85,0,0-.43-.43-.43-.43.61.03,1.24.05,1.85.11,0,0-.02.32-.02.32,0,.12-.16,2.04-.16,2.08-.04,0-1.53-.18-1.63-.2h0ZM143,75.67c.45-.06.97-.12,1.51-.17l-.21.21-.14-1.85.35.35c-.62.05-1.26.06-1.88.1-.03-.93-.1-1.87-.11-2.8l.52.52c-.78.02-1.56.02-2.34.02l.53-.53c0,.37-.06,2.53-.07,2.84,0,0-.46-.01-.46-.01-.48-.01-.97-.02-1.45-.05l.43-.43c-.03.62-.05,1.23-.1,1.85l-.33-.33c.19.01,1.57.1,1.71.11-.19,2.26-.09,4.52.1,6.78,0,0-.36-.36-.36-.36.78-.06,1.56-.09,2.34-.09l-.45.45c0-2.29.19-4.61.41-6.59h0Z"/>
        </g>
        <g>
          <path class="cls-2" d="M148.91,76.65v5.61h-2.34v-12.26h2.34v5.2c.62-.96,1.68-1.57,2.86-1.57,1.94,0,3.09,1.32,3.09,3.33v5.3h-2.34v-4.69c0-1.08-.49-1.85-1.7-1.85-.87,0-1.55.46-1.91.93Z"/>
          <path class="cls-6" d="M148.95,76.67c.16,2.03.25,3.97.32,5.93-.55.01-2.57.07-3.11.08-.15-4.29.14-8.57.25-12.85.89.01,1.77.02,2.66,0,0,1.79.08,3.58.15,5.36l-.57-.17c1.26-2.38,5.33-2.5,6.37.16.49,1.04.33,2.51.38,3.61,0,1.32,0,2.66-.02,3.98-1.1-.01-2.23-.02-3.33-.06.04-1.6.09-3.75.16-5.32.11-1.81-2.31-1.84-3.24-.73h0ZM148.86,76.64c.69-1.09,2.49-1.59,3.47-.56.82,1.07.46,2.51.59,3.74,0,0,.07,2.44.07,2.44l-.47-.47c.78-.03,1.56-.03,2.34-.04l-.52.52c-.02-1.15-.02-2.31-.02-3.46-.03-.91.16-2.41-.21-3.23-.75-2.02-3.83-1.93-4.95-.2,0,0-.61.87-.61.87.08-2.07.18-4.16.19-6.23l.16.16c-.78-.02-1.56-.01-2.34,0l.16-.16c.11,4.08.4,8.17.25,12.26,0,0-.42-.42-.42-.42l2.34.06-.35.35c.07-1.91.15-3.8.31-5.62h0Z"/>
        </g>
        <g>
          <path class="cls-2" d="M160.69,82.5c-2.55,0-4.43-1.91-4.43-4.49,0-2.44,1.91-4.38,4.4-4.38,2.83,0,4.33,2.34,4.33,4.74h-6.68c.16,1.36,1.09,2.17,2.39,2.17.9,0,1.77-.46,2.11-1.23h2.08c-.44,1.96-2.17,3.19-4.18,3.19ZM158.44,77.06h4.32c-.26-.96-1-1.55-2.08-1.55s-1.93.59-2.24,1.55Z"/>
          <g>
            <path class="cls-6" d="M160.69,82.55c-7.78-.42-5.43-11.58,1.88-8.68,1.78.84,2.7,2.85,2.72,4.76,0,0-.3.02-.3.02-2.23.14-4.46.17-6.68.22l.5-.56c.12.87.67,1.53,1.49,1.66.91.19,1.9-.26,2.22-1.14,0,0,.28,0,.28,0,.85.02,1.71.08,2.55.15-.44,2.18-2.52,3.63-4.66,3.57h0ZM160.69,82.45c1.86.04,3.63-1.38,3.83-3.22,0,0,.36.45.36.45-.69.05-1.38.09-2.08.11l.44-.28c-.79,1.82-3.52,2.08-4.76.6-.57-.65-.67-1.47-.74-2.26,0,0,.57.01.57.01,2.23.04,4.46.08,6.68.22l-.29.29c.03-.83-.1-1.7-.49-2.46-1.09-2.47-4.71-2.66-6.34-.76-2.46,2.45-.95,7.42,2.82,7.31h0Z"/>
            <path class="cls-6" d="M158.48,77.03c.97-.19,1.67-.33,2.32-.37.66-.01,1.27.34,1.96.24,0,0-.16.2-.16.2-.77-1.62-3.09-1.24-4.12-.07h0ZM158.4,77.09c-.12-1.94,2.51-2.75,3.82-1.54.51.48.63,1.1.73,1.68-.84-.14-1.71.24-2.55.22-.78-.03-1.53-.18-2-.37h0Z"/>
          </g>
        </g>
        <g>
          <path class="cls-2" d="M179.37,73.31v-17.05c-2.48.02-4.95.03-7.43.04v16.57c2.47.23,4.95.37,7.43.44Z"/>
          <path class="cls-6" d="M179.3,73.24c-.7-5.68-1.09-11.34-.31-16.98,0,0,.39.38.39.38-2.48-.17-4.96,0-7.43.22,0,0,.57-.57.57-.57.26,2.39.38,5.85.45,8.28.11,2.76.02,5.52-.14,8.28,0,0-.8-.88-.8-.88,2.44.3,4.73.83,7.28,1.25h0ZM179.44,73.38c-2.59.19-5.73.43-8.33.37-.18-3.05-.31-6.11-.19-9.16.08-2.69.21-6.24.51-8.89,2.76.23,5.53.4,8.29.16,0,0,.04.41.04.41.69,5.58.53,11.64-.31,17.12h0Z"/>
        </g>
        <g>
          <path class="cls-2" d="M171.95,74.61v7.33h7.43v-6.9c-2.48-.07-4.96-.22-7.43-.44Z"/>
          <path class="cls-6" d="M172.01,74.68c.43,2.69.98,4.73.76,7.26,0,0-.83-.83-.83-.83,1.23.15,2.47.46,3.71.51,1.24.05,2.48-.06,3.71-.26l-.58.58c-.36-2.29-.48-4.59-.49-6.9,0,0,1.04,1.07,1.04,1.07-2.23-.19-4.41-.77-7.33-1.44h0ZM171.88,74.53c2.26-.44,5.67-.7,8.55-.52.05,2.65-.06,5.3-.48,7.93,0,0-.11.66-.11.66l-.47-.08c-2.74-.59-5.45-.05-8.16.34-.37-2.67.01-5.86.67-8.32h0Z"/>
        </g>
        <g>
          <path class="cls-2" d="M207.28,54.11c1.42-.02,2.84-.03,4.25-.05v-8.06h-13.23l-2.52,8.3c3.83-.06,7.66-.12,11.49-.19Z"/>
          <path class="cls-6" d="M207.28,54.01c1.42,0,2.83-.17,4.25-.39l-.43.43c-.2-1.34-.38-2.69-.44-4.03-.06-1.34-.01-2.69.11-4.03l.76.76c-4.42-.66-8.81-.47-13.23.03,0,0,.76-.56.76-.56-.67,2.82-1.4,5.62-2.25,8.38,0,0-1.04-1.38-1.04-1.38,3.86-.15,7.66.78,11.51.78h0ZM207.28,54.21c-3.85.13-7.61,1.18-11.48,1.16,0,0-1.47.08-1.47.08.54-1.85,1.11-3.77,1.76-5.59.54-1.57,1.07-3.15,1.68-4.69,4.59.49,9.16.77,13.75.07,0,0,.68-.07.68-.07l.08.83c.31,2.86.06,5.71-.4,8.54-1.53-.21-3.08-.36-4.61-.33h0Z"/>
        </g>
        <g>
          <path class="cls-2" d="M179.37,54.51v-.18h1.92l.05.15c2.13-.02,4.26-.04,6.39-.07l-2.55-8.42h-13.23v8.55c2.48,0,4.95-.02,7.43-.04Z"/>
          <path class="cls-6" d="M179.3,54.44c-.05-.08-.07-.13-.1-.2.69-.15,1.39-.24,2.09-.34l.26-.03c.04.09.18.4.22.49,0,0-.44-.33-.44-.33,2.12-.28,4.25-.44,6.38-.5l-.83,1.14c-.99-2.77-1.3-5.74-2.02-8.58,0,0,.31.23.31.23-3.31-.16-6.62.38-9.92.54,0,0-3.31.12-3.31.12l.99-.99c.14,2.85.08,5.7-.09,8.55,0,0-.9-.9-.9-.9,2,.12,5.3.55,7.36.79h0ZM179.45,54.58c-2.64.41-5.57.78-8.34.92,0,0-.06-.95-.06-.95-.2-3.19-.22-6.39-.05-9.58.59.03,3.59.13,4.25.16,3.38.17,6.76.72,10.15.53.98,2.85,2.43,5.56,3.17,8.5,0,0,.31,1.14.31,1.14-2.65.01-5.31-.09-7.94-.4-.02-.11-.05-.34-.07-.44,0,0,.42.31.42.31-.64-.09-1.28-.17-1.92-.3l.13-.13c-.01.09-.04.18-.06.25h0Z"/>
        </g>
        <g>
          <path class="cls-2" d="M204.1,74.65v7.29h7.43v-7.57c-2.48.1-4.95.2-7.43.28Z"/>
          <path class="cls-6" d="M204.18,74.72c.46,2.66.95,4.68.77,7.22,0,0-.84-.84-.84-.84,2.47.37,4.93.81,7.43.32,0,0-.53.53-.53.53-.4-2.51-.55-5.04-.54-7.57,0,0,1.11,1.07,1.11,1.07-2.23.01-4.46-.33-7.4-.72h0ZM204.03,74.58c2.25-.67,5.64-1.23,8.54-1.35.09,2.91-.06,5.82-.51,8.7,0,0-.09.59-.09.59l-.44-.06c-2.76-.57-5.45.11-8.18.38-.34-2.65.03-5.81.68-8.27h0Z"/>
        </g>
        <g>
          <path class="cls-2" d="M211.53,72.6v-16.81c-2.48.04-4.95.08-7.43.12v16.95c2.48-.08,4.95-.18,7.43-.27Z"/>
          <path class="cls-6" d="M211.46,72.53c-.7-5.69-1.11-11.1-.33-16.74,0,0,.41.4.41.4-2.48-.15-4.96,0-7.43.26,0,0,.53-.54.53-.54.12,1.41.27,2.83.32,4.24.18,4.11.31,8.63.02,12.72,0,0-.91-.88-.91-.88,2.02.07,5.3.36,7.39.54h0ZM211.61,72.67c-2.64.48-5.55.93-8.32,1.16-.35-4.42-.25-9.24-.04-13.68.07-1.6.24-3.21.37-4.81,2.76.2,5.53.3,8.29.02.72,5.69.58,11.69-.29,17.31h0Z"/>
        </g>
        <g>
          <path class="cls-2" d="M193.82,73.2c.91-.03,1.83-.06,2.74-.09l5.09-17.16c-2.14.04-4.27.07-6.41.11l-2.75,9.06h-1.53l-2.72-8.96c-2.13.03-4.27.05-6.4.07l5.08,17.12c2.3-.03,4.59-.09,6.88-.16Z"/>
          <path class="cls-6" d="M193.82,73.1c.91-.05,1.83-.07,2.74-.14l-.14.11c1.41-5.8,2.38-11.73,4.49-17.34,0,0,.76,1.01.76,1.01l-6.41-.27.38-.29c-1.06,2.97-1.96,6-2.74,9.06l-.07.28c-.19,0-1.63.08-1.86.09l-.34.02-.13-.36c-.94-2.59-2.28-6.25-3.12-8.84,0,0,.88.64.88.64l-6.4.21.98-1.33c.91,2.84,1.72,5.7,2.51,8.57.69,2.5,1.46,6.15,1.98,8.73,0,0-.41-.3-.41-.3,2.29.14,4.59.2,6.89.16h0ZM193.83,73.3c-2.39.07-4.77.25-7.16.51l-.13-.33c-2.22-5.46-4.13-11.28-5.68-16.95,0,0-.37-1.35-.37-1.35h1.35c.38.01,6.95.08,7.1.08.82,2.86,1.78,6.78,2.49,9.71,0,0-.47-.35-.47-.35l1.53.07-.4.29c1.08-3.07,2.04-6.17,2.82-9.32l.32-.02,6.4-.48,1.02-.08-.26,1.08c-1.29,5.85-3.72,11.35-5.7,16.98,0,0-.04.11-.04.11-.95-.02-1.9.03-2.84.04h0Z"/>
        </g>
        <g>
          <path class="cls-2" d="M219.9,72.28c1.2-.05,2.4-.11,3.6-.16-.26-.77-.41-1.62-.41-2.54,0-3.98,2.83-6.81,6.33-6.81,2.97,0,5.42,1.87,6.61,4.07v4.73c2.22-.09,4.44-.16,6.66-.23v-14.04h-6.66v4.12c-1.87-3.02-4.84-4.79-8.24-4.79-6.38,0-11.41,5.56-11.41,12.94,0,.98.09,1.92.25,2.83,1.09-.04,2.18-.08,3.27-.13Z"/>
          <path class="cls-6" d="M219.89,72.18c1.2-.08,2.4-.11,3.6-.22l-.14.21c-.6-1.68-.76-3.58-.21-5.37,2.04-6.63,10.78-6.15,13.6-.33.08.17.12.15.1.39,0,0-.22,4.73-.22,4.73l-.61-.59c2.23.03,4.45.08,6.68.04l-.31.32c.09-4.68-.1-9.36-.31-14.04,0,0,.64.64.64.64-2.22.11-4.44.17-6.66.23l.87-.87c.07,2.26.09,5.24.15,7.53,0,0-1.84-2.91-1.84-2.91-4.62-7.19-14.42-4.45-17.4,2.79-.99,2.34-1.43,5.04-1.03,7.66l-.16-.13c1.09,0,2.18-.05,3.27-.07h0ZM219.9,72.38c-1.13.06-2.27.11-3.4.19-.58-2.68-.61-5.52.16-8.27,1.41-5.62,7.42-9.84,13.29-8.51,2.95.6,5.43,2.66,6.88,5.13l-1.77.5c.03-1.66.04-3.35.11-5.02,0,0,.84.03.84.03,2.44.07,4.89.13,7.33.27-.23,4.88-.43,9.76-.34,14.65,0,0,0,.31,0,.31-2.33.11-4.65.31-6.97.5l-.58.05c0-.15-.24-5.03-.25-5.37,0,0,.1.39.1.39-.82-1.34-2.04-2.45-3.46-3.05-5.14-2.33-9.83,2.73-8.2,7.89,0,0,.06.21.06.21-1.27,0-2.54.07-3.81.11h0Z"/>
        </g>
        <g>
          <path class="cls-2" d="M235.43,73.35c-1.3,1.77-3.48,3.13-6.01,3.13-2.07,0-3.9-.99-5.05-2.65-2.43.11-4.86.22-7.3.32,1.57,5.09,5.73,8.5,10.72,8.5,3.4,0,6.37-1.77,8.24-4.84v4.12h6.66v-8.85c-2.42.07-4.84.16-7.26.25Z"/>
          <path class="cls-6" d="M235.48,73.44c-2.26,4.33-8.99,5.14-11.83.9,0,0,.76.37.76.37-2.43.17-4.87.21-7.31.14,0,0,.63-.9.63-.9,1.81,8.82,12.81,11.45,17.49,3.38,0,0,1.67-2.86,1.67-2.86.04,1.83.13,5.63.17,7.47,0,0-1.03-1.03-1.03-1.03,2.22-.05,4.44-.05,6.66,0,0,0-1.03,1.03-1.03,1.03.05-2.95.16-5.9.34-8.85,0,0,.71.69.71.69-1.8-.05-5.43-.22-7.24-.35h0ZM235.38,73.26c2.3-.36,5.58-.68,7.95-.92,0,0,.05.76.05.76.2,3.28.32,6.57.36,9.86-2.57.05-5.14.09-7.71.02l-1.06-.03c.01-.62.1-4.41.12-5.12l1.75.49c-1.18,1.87-2.94,3.45-5.03,4.23-6.37,2.34-13.21-2.15-15.4-8.18,0,0-.3-.8-.3-.8,1.52-.17,3.06-.35,4.57-.45,1.38-.09,2.77-.15,4.15-.17,2.26,3.98,7.73,3.46,10.56.31h0Z"/>
        </g>
        <g>
          <path class="cls-2" d="M254.53,71.19v-4.44c1.44-1.2,4.6-2.54,8-2.54v-7.57c-3.45,0-6.23,1.92-8,4.65v-3.98h-6.85v13.92c2.28-.04,4.57-.05,6.85-.04Z"/>
          <path class="cls-6" d="M254.46,71.12c-.19-1.73-.42-3.14-.53-4.6,2.29-2.18,5.5-3.15,8.6-3.21,0,0-.89.89-.89.89-.01-2.52.25-5.05.43-7.57l.46.46c-3.15-.32-6.15,1.73-7.58,4.46,0,0-.81,1.46-.81,1.46l-.12-1.73-.27-3.98.77.77c-2.28.14-4.57.17-6.85.23l1-1c.16,4.64.01,9.28-.27,13.92l-.75-.74c2.26.15,4.45.43,6.79.63h0ZM254.6,71.26c-2.35.27-5.24.63-7.61.75-.34-5.24-.49-10.49-.28-15.74,2.88.09,5.77.12,8.65.31-.02.37-.28,4.22-.31,4.7,0,0-.93-.28-.93-.28,2.07-2.84,5.3-4.75,8.86-4.87.21,2.98.52,5.96.46,8.94,0,0-.89.02-.89.02-2.62.04-5.43.67-7.63,2.09,0,0,.21-.44.21-.44-.11,1.62-.33,3.18-.51,4.51h0Z"/>
        </g>
        <g>
          <path class="cls-2" d="M247.68,73v8.95h6.85v-9c-2.28,0-4.57.02-6.85.05Z"/>
          <path class="cls-6" d="M247.75,73.07c.5,3.26,1.1,5.77.63,8.87,0,0-.7-.7-.7-.7,2.28.44,4.56.53,6.85.16,0,0-.54.54-.54.54-.42-2.98-.61-5.99-.48-9,0,0,1.03,1.03,1.03,1.03-2.04-.1-4.09-.49-6.78-.91h0ZM247.61,72.93c2.09-.52,5.2-.98,7.88-1.06.25,3.35.05,6.74-.41,10.07,0,0-.08.61-.08.61l-.46-.07c-2.49-.42-4.97-.22-7.44.25-.57-3.12-.19-6.88.52-9.81h0Z"/>
        </g>
        <g>
          <path class="cls-2" d="M273.13,53.66v-7.66h-6.85v7.69c2.28,0,4.57-.02,6.85-.03Z"/>
          <path class="cls-6" d="M273.06,53.59c-.44-2.59-1.04-5.01-.71-7.59,0,0,.78.78.78.78-2.28-.44-4.55-.67-6.85-.24,0,0,.55-.55.55-.55.4,2.54.57,5.12.51,7.69,0,0-1.06-1.05-1.06-1.05,2.04.08,4.07.5,6.79.95h0ZM273.2,53.73c-2.07.56-5.24,1.01-7.93,1.06-.17-2.93,0-5.89.46-8.79,0,0,.09-.62.09-.62l.46.07c2.53.51,5.02.09,7.53-.33.45,2.83.11,5.89-.6,8.61h0Z"/>
        </g>
        <g>
          <path class="cls-2" d="M283.66,71.2l-1.42-2.54,6.95-11.36h-7.43l-5.37,9.11h-3.26v-10.94c-2.28.02-4.57.03-6.85.04v15.79c5.8.07,11.6.1,17.38-.11Z"/>
          <path class="cls-6" d="M283.57,71.15c-.63-.95-1.22-1.66-1.74-2.46,2.04-4.04,4.29-7.96,6.6-11.84,0,0,.75,1.34.75,1.34-2.48.04-4.95.01-7.43-.12l.66-.37-2.92,4.41c-1.01,1.52-2,3.05-2.93,4.62-1.25-.03-2.5,0-3.75,0-.03-3.75-.27-7.5-.44-11.26l.76.75c-2.28.08-4.57.19-6.86.23l.94-.94c.12,5.19.18,10.59.05,15.79,0,0-.98-.99-.98-.99,5.78.09,11.31.61,17.28.83h0ZM283.74,71.25c-5.93.37-12.33.96-18.44,1.08-.15-5.87-.08-11.9.05-17.76,2.85,0,5.71.11,8.56.17-.16,3.89-.42,7.78-.47,11.67l-.32-.32c1.09,0,2.17.02,3.26,0l-.27.15c.89-1.52,1.72-3.08,2.53-4.64l2.45-4.69.18-.35.47-.03c2.99-.17,6.01-.16,9-.09-2.62,4.21-5.31,8.38-8.22,12.4,0,0,0-.35,0-.35.47.97.84,1.95,1.2,2.76h0Z"/>
        </g>
        <g>
          <path class="cls-2" d="M277.25,73.06l4.8,8.88h7.62l-5.06-9.05c-2.45.09-4.9.15-7.36.16Z"/>
          <path class="cls-6" d="M277.33,73.11c2.09,3.11,4.1,5.17,5.32,8.5,0,0-.61-.36-.61-.36,2.54.44,5.07.51,7.62.14,0,0-.48.81-.48.81-.51-.7-1.03-1.4-1.52-2.12-1.36-2.12-2.86-4.44-3.95-6.7,0,0,.92.52.92.52-2.34-.08-4.91-.61-7.31-.79h0ZM277.16,73.01c2.61-.51,5.29-1.03,7.99-1.16,1.93,3.07,3.64,6.46,5,9.83,0,0,.38.92.38.92-2.93-.47-5.87-.45-8.79.08-2.11-2.7-3.56-6.64-4.57-9.67h0Z"/>
        </g>
        <g>
          <path class="cls-2" d="M268.79,73.04c-.84,0-1.68-.02-2.51-.02v8.92h6.85v-8.87c-1.45,0-2.89-.01-4.34-.03Z"/>
          <path class="cls-6" d="M268.79,73.14c-.84-.02-1.68.07-2.52.22l.35-.35c.87,2.96.46,5.95,0,8.92,0,0-.35-.35-.35-.35,2.3.22,4.58-.3,6.85-.5,0,0-.85.85-.85.85-.1-1.48-.19-2.96-.22-4.44.01-1.48.03-2.96.33-4.44l.74.74c-1.45-.3-2.89-.67-4.34-.67h0ZM268.79,72.94c1.63.02,3.28-.43,4.91-.73.81,3.51.45,7.09.22,10.64-2.65-.15-5.3-.85-7.97-.53-.04-.87-.19-1.74-.33-2.61-.49-2.38-.16-4.76.38-7.1.92.2,1.86.33,2.78.33h0Z"/>
        </g>
        <g>
          <path class="cls-2" d="M302.51,76.91c-3.27,0-5.74-1.79-6.67-4.84-1.99.23-3.98.41-5.97.55,1.3,5.93,6.24,10.04,12.64,10.04,5.9,0,10.98-3.59,12.27-9.35h-6.09c-1.01,2.25-3.55,3.59-6.18,3.59Z"/>
          <path class="cls-6" d="M302.51,77.01c-3.13.09-6.26-1.67-7.37-4.73,0,0,.78.51.78.51-1.98.35-3.99.58-6,.69l.78-1.05c.8,5.72,5.45,10.05,11.41,9.62,5.41-.17,10.41-3.63,11.66-8.96,0,0,1,1.25,1,1.25-2.03-.03-4.06-.17-6.09-.39,0,0,.57-.37.57-.37-1.38,2.41-4.15,3.44-6.76,3.44h0ZM302.51,76.81c2.51.02,5.12-1.61,5.71-4.07,2.58-.31,5.19-.46,7.79-.46-.64,6.87-7.23,11.77-13.92,10.96-6.24-.56-12.06-5.03-13.29-11.35,2.53-.35,5.08-.55,7.63-.55.39,3.13,2.81,5.56,6.08,5.48h0Z"/>
        </g>
        <g>
          <path class="cls-2" d="M297.43,70.13c.39-.05.63.14.75.4h16.94c0-7.04-4.41-13.9-12.7-13.9-7.29,0-12.89,5.7-12.89,12.84,0,.48.02.95.07,1.41,2.62-.18,5.23-.42,7.84-.76ZM302.46,62.15c3.16,0,5.32,1.73,6.09,4.55h-12.65c.91-2.83,3.4-4.55,6.57-4.55Z"/>
          <g>
            <path class="cls-6" d="M297.42,70.03c.33-.07.74.12.87.45l-.1-.07c5.64-.12,11.27-1.15,16.93-.68,0,0-.79.79-.79.79.87-10.04-7.94-15.89-16.97-11.82-4.56,2.24-7.15,7-7.17,12.12,0,0-.63-.54-.63-.54,2.62,0,5.26-.02,7.87-.26h0ZM297.45,70.23c-2.8.27-5.56.81-8.33,1.35,0,0-.12-.64-.12-.64-2.14-10.39,9.29-18.39,18.54-13.85,5.26,2.6,8.22,8.39,8.42,14.17-5.94.58-11.85-.48-17.77-.63,0,0-.08,0-.08,0-.08-.29-.35-.46-.66-.41h0Z"/>
            <path class="cls-6" d="M302.46,62.05c4.02-.14,6.67,1.14,6.92,5.51,0,0-.83-.14-.83-.14-3.16-.82-6.32-.13-9.49.19-1.49.1-3.11.17-4.61.21,0,0,.43-1.44.43-1.44,1-3.56,4.26-4.54,7.58-4.33h0ZM302.46,62.25c-2.68.03-4.7,2.48-5.55,4.78,0,0-1.02-1.4-1.02-1.4,4.24-.04,8.44,1.39,12.65.35,0,0-.69.9-.69.9-1.1-2.2-2.67-4.66-5.4-4.64h0Z"/>
          </g>
        </g>
        <g>
          <path class="cls-2" d="M324.31,52.27c1.3-.02,2.59-.02,3.89-.03v-1.83h-6.85v1.93c.99-.03,1.97-.06,2.96-.07Z"/>
          <path class="cls-6" d="M324.31,52.17c1.29.04,2.57-.99,3.89-.82,0,0-.88.89-.88.89.03-.61.25-1.22.41-1.83l.48.48c-.57-.16-1.14-.21-1.71-.16-1.7.26-3.4.77-5.14.76,0,0,1.07-1.07,1.07-1.07,0,.64-.03,1.29-.17,1.93l-.93-.91c.98.2,1.97.78,2.99.73h0ZM324.31,52.37c-1.25.05-2.41.86-3.63,1.06-.22-.95-.45-2.05-.4-3.02,0,0,0-1.1,0-1.1.89.01,1.9.05,2.78.16,1.72.11,3.41,1.02,5.14.46,0,0,.33-.09.33-.09l.15.57c.28.85.46,1.75.45,2.63,0,0-.92.08-.92.08-1.31.18-2.61-.82-3.9-.76h0Z"/>
        </g>
        <g>
          <path class="cls-2" d="M328.21,53.99c-2.01.02-4.03.03-6.04.07-.27,0-.54.02-.82.03v3.23h-4.27v5.42h4.27v19.22h6.85v-19.22h4.31v-5.42h-4.31v-3.32Z"/>
          <path class="cls-6" d="M328.14,54.06c-1.93.2-4.86.48-6.77.64,0,0,.6-.62.6-.62.02.57.15,3.47.17,3.96-1.68.03-3.37.11-5.05.13l.86-.86c.03,1.81.05,3.61.03,5.42l-.89-.89c1.67.03,3.35.11,5.02.21-.15,3.09-.44,7.22-.44,10.28-.04,3.2.08,6.41.23,9.61l-.54-.54c2.28-.12,4.57-.23,6.85-.29l-.84.84c-.2-6.75-.32-13.5-.14-20.25.63.02,4.57.13,5.29.15l-.87.87c.07-1.81.14-3.61.25-5.42l.63.63c-1.57-.09-3.14-.15-4.71-.29,0-.01.32-3.44.33-3.59h0ZM328.28,53.91c.1,1.04.22,2.2.3,3.39l-.37-.37c1.44-.12,2.88-.17,4.31-.26l.59-.04.04.66c.13,2.08.2,4.18.28,6.26-.51.01-4.6.13-5.22.15,0,0,1-1,1-1,.15,6.69.02,13.39-.19,20.08-2.55-.06-5.11-.18-7.66-.31l-.57-.03.02-.51c.38-6.31.25-12.9-.17-19.22,0,0,.72.72.72.72-1.71.1-3.43.16-5.14.19-.04-2.39-.02-4.8.03-7.19,1.7,0,3.41.07,5.11.11,0,0-.75.75-.75.75.02-.4.15-3.52.16-3.85,2.25,0,5.24.29,7.51.46h0Z"/>
        </g>
      </g>
      <g>
        <path class="cls-5" d="M297.66,83.48c-1.25-3.08-4.21-5.41-7.5-5.91,3.56-.15,7.15.5,10.44,1.88,1.07-3.7,1.9-7.46,2.48-11.27.81,2.66,2.01,5.2,3.54,7.52,2-1.1,3.99-2.19,5.99-3.29-.11,2.55.63,5.12,2.09,7.21,1.82-2.75,4.42-4.98,7.42-6.37.35,2.59,1.36,5.09,2.89,7.2,1.78-1.98,4.2-3.36,6.81-3.89-.8,2.22-1.03,4.63-.66,6.96"/>
        <path class="cls-6" d="M297.56,83.52c-1.48-2.79-4.39-4.87-7.52-5.21,0,0,.08-1.48.08-1.48,3.67-.26,7.44.33,10.81,1.83,0,0-1.17.56-1.17.56,1.31-4.11,2.57-8.28,3.24-12.56.79,3.14,2.04,6.21,3.95,8.83,0,0-.53-.13-.53-.13.74-.46,6.3-3.85,6.89-4.21-.13,2.79.46,5.68,2.15,7.95,0,0-1.56.02-1.56.02,2.11-3.4,5.39-5.92,9.07-7.43.2,1.66.46,3.42,1.09,4.98.44,1.14,1,2.24,1.7,3.26l-1.44-.07c2.2-2.38,5.29-3.7,8.47-4.01-.63,1.33-1.11,2.75-1.36,4.22-.2,1.13-.24,2.3-.17,3.47l-.2.03c-.59-2.34-.51-4.86.21-7.18,0,0,.67.78.67.78-2.82.72-5.22,2.52-6.97,4.79-2.03-2.43-3.5-5.37-3.92-8.53,0,0,1.51.83,1.51.83-3.27,1.48-5.98,4.04-7.88,7.07,0,0-.76-1.14-.76-1.14-1.54-2.27-2.26-5.06-2.03-7.78,0,0,1.06.66,1.06.66l-6.14,3.01-.35.17-.18-.3c-1.46-2.41-2.64-4.97-3.53-7.65l.66-.05c-.52,4.15-1.09,8.34-2.24,12.38-3.48-1.45-7.21-2.35-10.99-2.3,0,0,.08-1.48.08-1.48,3.47.66,6.47,3.24,7.48,6.61,0,0-.19.08-.19.08h0Z"/>
      </g>
      <g>
        <g>
          <path class="cls-5" d="M12.25,39.99c-1.81-.96-3.97-1.09-6-.83-1.77.22-3.59.72-5.3.22,1.36,5.02,6.89,8.06,12.09,7.94,5.3-.13,1.96-5.88-.78-7.33Z"/>
          <path class="cls-4" d="M12.2,40.08c-3.69-1.92-7.62,1.54-11.42-.14,0,0,.72-.71.72-.71.64,5.25,6.9,7.09,11.45,7.02.44-.05,1.06-.07,1.43-.28.33-.14.44-.34.52-.8.16-1.75-1.04-4.16-2.7-5.09h0ZM12.29,39.9c2.66,1.39,6.96,5.91,2.67,8.12-2.57.86-5.48.08-7.85-1.03-3.3-1.8-5.66-4.84-7.11-8.31,1.23.22,2.44.21,3.7-.05,2.83-.67,6.03-.12,8.6,1.27h0Z"/>
        </g>
        <path class="cls-4" d="M9.18,41.11c2.69.54,5.1,2.41,6.28,4.88-2.26-1.58-4.18-3.08-6.28-4.88h0Z"/>
      </g>
    </g>
  </g>
</svg>