<?xml version="1.0" encoding="UTF-8"?>
<svg id="Layer_2" data-name="Layer 2" xmlns="http://www.w3.org/2000/svg" viewBox="0 0 285 140.81">
  <defs>
    <style>
      .cls-1 {
        fill: #e06f26;
      }

      .cls-1, .cls-2, .cls-3, .cls-4, .cls-5, .cls-6 {
        stroke-width: 0px;
      }

      .cls-2 {
        fill: #7d362d;
      }

      .cls-7 {
        opacity: .98;
      }

      .cls-3 {
        fill: #2f7e3e;
      }

      .cls-4 {
        fill: #39190f;
      }

      .cls-5 {
        fill: #391911;
      }

      .cls-6 {
        fill: #391910;
      }
    </style>
  </defs>
  <g id="Layer_1-2" data-name="Layer 1">
    <g>
      <g>
        <g>
          <path class="cls-2" d="M116.51,105.15l.65-2.18h2.51v2.28c1.94.05,3.89.11,5.83.15,1.22.03,2.44.04,3.66.05v-13.14h-16.91l-3.81,12.58c2.69.09,5.38.18,8.07.26Z"/>
          <path class="cls-6" d="M116.45,105.07c.16-.9.25-1.65.4-2.44,1.11-.11,2.23-.2,3.34-.27.09.95.13,1.93.19,2.88,0,0-.69-.71-.69-.71,1.58-.04,3.16-.06,4.75-.04,1.58.01,3.16,0,4.74.1,0,0-.85.84-.85.84.22-4.31.69-8.82.5-13.14,0,0,.34.34.34.34-2.82.08-5.64.33-8.45.46-2.82.13-5.64.16-8.45.24l.99-.73c-1.19,4.22-2.59,8.37-4.08,12.5,0,0-.7-.98-.7-.98,2.21.22,5.71.65,7.98.95h0ZM116.57,105.23c-3,.22-6.06.38-9.1.44,1.13-4.59,2.34-9.17,3.8-13.66,0,0,.26-.75.26-.75,6,.05,11.99.45,17.99.72-.21,4.43.26,9.05.49,13.47,0,0,.02.82.02.82l-.88.02c-3.41.08-6.83-.12-10.23-.4.06-.97.1-1.96.18-2.92,0,0,.57.57.57.57-.84-.06-1.67-.12-2.51-.21l.35-.26c-.31.78-.65,1.51-.94,2.16h0Z"/>
        </g>
        <g>
          <path class="cls-2" d="M78.97,126.94c2.27.07,4.55.05,6.82.04.75,0,1.51-.02,2.26-.03v-20.62c-3.16-.07-6.33-.12-9.5-.15v20.74c.14,0,.27,0,.41,0Z"/>
          <path class="cls-6" d="M78.98,126.84c2.64.08,6.42-.39,9.07-.65,0,0-.76.77-.76.77-.51-6.88,1.02-13.73.25-20.62,0,0,.5.51.5.51-3.16.19-6.32.31-9.49.31,0,0,.98-.97.98-.97.11,3.46.13,6.91-.04,10.37-.19,3.46-.82,6.91-.82,10.37l-.11-.11s.41.02.41.02h0ZM78.97,127.04h-.41s-.11,0-.11,0c.01-3.49-.63-6.99-.82-10.48-.18-3.46-.16-6.91-.04-10.37,0,0,.03-1.01.03-1.01,3.49.12,6.98.32,10.45.65,0,0,.53.04.53.04-.12,1.87-.25,3.75-.24,5.63-.02,5.43,1.01,10.84.4,16.27-3.26-.15-6.51-.74-9.79-.72h0Z"/>
        </g>
        <g>
          <path class="cls-2" d="M85.29,129.08c-2.11,0-4.21.02-6.31-.05-.14,0-.27,0-.41,0v9.23h9.5v-9.21c-.92,0-1.85.03-2.77.03Z"/>
          <path class="cls-6" d="M85.29,129.17c-2.25-.07-4.5.61-6.75.71,0,0,.89-.87.89-.87.17,2.32-.35,4.62-.52,6.92-.05.77-.05,1.54-.03,2.31l-.32-.32c3.16-.2,6.32-.68,9.5-.71,0,0-1.03,1.03-1.03,1.03-.07-1.53-.03-3.07.04-4.6.07-1.34.42-3.26.65-4.6,0,0,.33.33.33.33-.92-.13-1.85-.2-2.77-.2h0ZM85.29,128.98c1.01-.02,2.03-.13,3.04-.31.24,1.5.65,3.48.72,4.98.1,1.88.1,3.79,0,5.67-3.5-.03-6.99-.5-10.48-.75,0,0-.33-.01-.33-.01.17-2.43-.32-4.82-.52-7.23-.09-1.06-.03-2.19.03-3.26,2.53.14,5.01.9,7.54.91h0Z"/>
        </g>
        <g>
          <path class="cls-2" d="M88.06,104.25v-1.29h2.45l.4,1.36c2.76.07,5.52.15,8.28.24l-3.72-12.27h-16.91v11.81c3.17.02,6.33.07,9.5.14Z"/>
          <path class="cls-6" d="M87.99,104.18c-.07-.56-.18-.97-.23-1.45,0,0,.29-.04.29-.04.93-.11,1.86-.19,2.79-.27,0,0,.15.39.15.39l.51,1.33-.57-.44c1.38-.05,2.76-.08,4.15-.08,1.38,0,2.76,0,4.14.05,0,0-.88,1.15-.88,1.15-1.26-4.08-1.85-8.36-3.16-12.44,0,0,.29.22.29.22-1.41,0-2.82.05-4.23.14-4.09.3-8.61.5-12.68.56,0,0,1.01-1.01,1.01-1.01.06,1.97.07,3.94.04,5.9-.03,1.97-.09,3.94-.19,5.9l-.85-.86c2.6.17,6.75.64,9.42.93h0ZM88.13,104.32c-3.19.27-7.18.62-10.38.67-.21-4.23-.32-8.46-.19-12.69,0,0,.03-1.03.03-1.03,4.42.08,9.23.26,13.66.59,1.48.1,2.97.13,4.45.14,1.18,4.19,3.1,8.14,4.35,12.31,0,0,.35,1.16.35,1.16h-1.23c-2.92-.1-5.84-.3-8.75-.57-.05-.24-.33-1.51-.38-1.79,0,0,.49.36.49.36-.82-.07-1.63-.14-2.45-.24l.27-.27c-.04.5-.14.96-.2,1.36h0Z"/>
        </g>
        <g>
          <path class="cls-2" d="M100,126.8c3.39-.07,6.78-.18,10.17-.3l5.73-19.29c-2.69-.08-5.39-.17-8.08-.27l-2.97,9.8h-1.96l-3.05-10.07c-2.76-.09-5.53-.18-8.29-.25l6.06,20.41c.8-.01,1.6-.01,2.4-.03Z"/>
          <path class="cls-6" d="M100,126.7c3.39-.09,6.77-.39,10.15-.73,0,0-.49.38-.49.38,1.37-6.59,3.47-12.96,5.76-19.28,0,0,.46.63.46.63-2.69-.25-5.38-.38-8.07-.45l.3-.22c-.92,3.01-1.97,7.25-2.76,10.33-.32.01-2.1.1-2.46.11,0,0-.52.02-.52.02l-.18-.54c-.85-2.48-2.51-7.5-3.3-10,0,0,.91.7.91.7-2.76-.02-5.53-.08-8.29-.17,0,0,1.05-1.37,1.05-1.37.87,3.04,2.05,7.26,2.73,10.29,0,0,1.16,5.21,1.16,5.21.39,1.74.81,3.46,1.27,5.17,0,0-.13-.1-.13-.1,0,0,2.4,0,2.4,0h0ZM100,126.9l-2.4.07s-.1,0-.1,0l-.03-.1c-2.2-6.52-5.06-13.5-6.95-20.15,0,0-.44-1.41-.44-1.41,0,0,1.49.04,1.49.04,3.01.08,6.02.21,9.02.37,0,0,.19.66.19.66.73,2.52,2.14,7.61,2.81,10.15,0,0-.7-.52-.7-.52l1.96.09-.61.45,1.69-4.84c.59-1.69,1.14-3.39,1.67-5.09,0,0,.23,0,.23,0,2.9.11,5.8.16,8.7.06,0,0-.16.65-.16.65-1.53,6.54-3.24,13.04-5.69,19.3,0,0-.14.39-.14.39-3.51-.14-7.02-.26-10.53-.15h0Z"/>
        </g>
        <g>
          <path class="cls-2" d="M104.87,128.76h4.63l.03-.12c-1.56.05-3.11.08-4.67.12Z"/>
          <path class="cls-6" d="M104.97,128.75c1.11.02,2.02-.33,2.81-.6.19-.03.34.21.67.28.32.07.71-.02,1.05-.19l-.49.36s-.02-.13-.02-.13l.56.72c-.34.2-.61.34-.86.35-.25.04-.43.02-.73-.13-.58-.31-1.58-.71-3-.68h0ZM104.77,128.76c.14,0,.7-.44,1.67-.79.48-.17,1.08-.21,1.61-.18.83-.03,1.62.35,2.34.66-.21.24-.54.64-.75.88-1.05-.59-1.9.01-3.04.04-.73-.03-1.4-.4-1.82-.6h0Z"/>
        </g>
        <g>
          <path class="cls-2" d="M128.24,125.81c.31-.01.62-.02.93-.03v-18.24c-3.03-.05-6.07-.11-9.1-.2-.13,0-.26,0-.39-.01v18.82c2.86-.11,5.71-.23,8.57-.34Z"/>
          <path class="cls-6" d="M128.23,125.71l.93-.05s-.11.11-.11.11c-.15-4.56-1.13-9.09-.67-13.68,0,0,.37-4.56.37-4.56l.41.42c-3.17-.31-6.33-.21-9.51-.03,0,0,.61-.59.61-.59.25,2.71.36,6.65.43,9.41.08,3.14.07,6.28-.2,9.41,0,0-.85-.82-.85-.82,2.86.18,5.73.5,8.6.39h0ZM128.24,125.91c-3.12.12-6.2.75-9.3,1.16-.53-4.85-.3-10.16-.16-15.04.05-1.78.2-3.57.34-5.35,0,0,.56.05.56.05,3.28.34,6.57.56,9.86.37,0,0,.04.43.04.43l.37,4.56c.46,4.63-.55,9.2-.68,13.79,0,0-.11,0-.11,0l-.93.02h0Z"/>
        </g>
        <g>
          <path class="cls-2" d="M122.54,128.15c-.96.04-1.91.07-2.87.11v9.99h9.5v-10.36c-2.21.09-4.42.16-6.63.26Z"/>
          <path class="cls-6" d="M122.54,128.25c-.96.04-1.91.14-2.86.32l.3-.31c.68,3.32.74,6.65.17,9.99,0,0-.48-.48-.48-.48,1.58.19,3.16.22,4.75.12,1.58-.09,3.17-.34,4.75-.46l-.82.82c-.12-1.73-.18-3.45-.24-5.18-.02-1.73,0-3.46.16-5.18,0,0,.93.89.93.89-2.21-.16-4.44-.63-6.66-.53h0ZM122.53,128.05c2.5-.09,4.94-.88,7.42-1.17.45,3.78.25,7.59.03,11.37,0,0-.06.87-.06.87-1.84-.11-3.67-.4-5.5-.52-1.73-.12-3.45-.05-5.17.17-.1-1.01-.26-2.02-.36-3.02-.33-2.63.08-5.22.52-7.83,1.04.12,2.09.17,3.12.13h0Z"/>
        </g>
        <g>
          <path class="cls-2" d="M159.92,126.96c-1.63,2.4-4.52,4.3-7.9,4.3-2.87,0-5.37-1.49-6.81-3.93-3.06.09-6.12.18-9.19.28,1.84,6.88,7.31,11.55,13.91,11.55,4.35,0,8.15-2.27,10.54-6.19v5.27h8.52v-11.47c-3.02.06-6.04.11-9.07.18Z"/>
          <path class="cls-6" d="M159.97,127.05c-3.11,5.88-12.02,6.81-15.52.73,0,0,.78.43.78.43-3.06.14-6.12.14-9.19.07,0,0,.62-.84.62-.84,2.13,11.62,16.65,15.68,23,5.04,0,0,1.7-2.87,1.7-2.87.04,2,.11,6.59.15,8.63,0,0-1.04-1.04-1.04-1.04,2.84-.05,5.68-.03,8.51.02,0,0-1.02,1.02-1.02,1.02.02-1.91.08-3.82.13-5.73.07-1.91.12-3.82.23-5.73,0,0,.68.67.68.67-2.92-.08-5.9-.22-9.03-.4h0ZM159.87,126.88c3.1-.32,6.44-.59,9.74-.8,0,0,.04.71.04.71.2,4.16.32,8.32.36,12.48-3.53.04-7.07.1-10.6,0,0-.55.1-5.59.11-6.28,0,0,1.75.49,1.75.49-4.8,8.06-15.69,7.96-21.7,1.39-2.11-2.16-3.61-4.92-4.46-7.85,3.35-.27,6.7-.52,10.06-.56,0,0,.53,0,.53,0l.25.44c2.96,5.32,10.47,4.41,13.91-.02h0Z"/>
        </g>
        <g>
          <path class="cls-2" d="M144.33,125.29c-.25-.88-.39-1.83-.39-2.84,0-5.09,3.61-8.7,8.09-8.7,3.8,0,6.92,2.39,8.45,5.21v5.92c2.84-.06,5.68-.12,8.52-.18v-17.94h-.28c-1.25.04-2.5.07-3.75.11-1.49.05-2.99.11-4.48.16v4.99c-1.32-2.13-3.08-3.75-5.11-4.8-3.97.15-7.93.28-11.9.34-4.83,2.63-8.1,8.15-8.1,14.88,0,1.07.09,2.11.25,3.12,2.91-.1,5.82-.19,8.72-.28Z"/>
          <path class="cls-6" d="M144.25,125.23c-1.75-4.27.21-9.91,4.72-11.65,4.61-1.88,10.04.68,12.28,4.95,0,0,.11.2.11.2,0,0,0,.22,0,.22-.01,1.97-.05,3.95-.13,5.92l-.77-.75,8.52.14-.42.43c.21-5.98.15-11.96-.06-17.94,0,0,.49.49.49.49-1.4.07-2.83.17-4.24.27-1.42.1-2.83.21-4.25.29l.74-.77.12,4.99.07,3.16-1.72-2.69c-1.2-1.87-2.85-3.43-4.81-4.39l.49.11c-2.97.14-8.95.34-11.92.4,0,0,.49-.13.49-.13-5.94,3.14-8.62,10.5-7.82,16.99,0,0-.56-.46-.56-.46,2.76,0,5.6.18,8.66.21h0ZM144.41,125.34c-2.88.23-6.07.61-9.25.79,0,0-.1-.49-.1-.49-1.5-7.13,1.3-15.37,7.9-19,0,0,.21-.12.21-.12h.28c2.96-.11,8.92-.25,11.88-.28,0,0,.27,0,.27,0,2.35,1.19,4.31,3.1,5.63,5.32,0,0-1.64.47-1.64.47.02-.45.12-5.45.13-5.75,2.79-.07,6.45-.01,9.27-.01,0,0,.51,0,.51,0l-.02.49c-.21,5.98-.27,11.96-.06,17.94,0,0,.01.41.01.41,0,0-.44.03-.44.03l-8.51.5-.74.04c-.1-2.24-.15-4.48-.16-6.72,0,0,.11.42.11.42-.99-1.74-2.51-3.24-4.35-4.06-6.9-3.01-12.34,3.21-10.94,10.03h0Z"/>
        </g>
        <g>
          <path class="cls-2" d="M184.12,124.44v-5.61c1.84-1.53,5.88-3.25,10.23-3.25v-9.57c-.61.02-1.22.03-1.82.05-3.57.57-6.46,2.79-8.41,5.79v-5.08h-8.76v17.82c2.92-.05,5.84-.1,8.76-.14Z"/>
          <path class="cls-6" d="M184.05,124.37c-.14-1.71-.42-4.12-.52-5.78,2.19-2.04,5.07-3.13,7.97-3.65.94-.15,1.89-.26,2.85-.25l-.89.89c-.01-2.77.26-6.76.42-9.57,0,0,.48.47.48.47-3.97-.52-7.89,2.12-9.83,5.63,0,0-.83,1.43-.83,1.43-.06-1.14-.29-5.57-.35-6.79,0,0,.76.76.76.76-2.92.14-5.84.17-8.76.23l1-1c.16,5.94.02,11.88-.26,17.82,0,0-.74-.73-.74-.73,2.16.11,6.54.37,8.7.52h0ZM184.19,124.51c-2.19.24-6.62.64-8.82.8,0,0-.71.06-.71.06-.3-6.2-.47-12.4-.3-18.61,0,0,.02-1.02.02-1.02l.97.02c3.18.07,6.38.11,9.56.27,0,0-.04.72-.04.72l-.26,5.08-.91-.27c2.55-3.59,6.62-6.1,11.09-6.07,0,0,.03.5.03.5.17,3.18.48,7.29.42,10.44-3.71-.02-7.66.73-10.76,2.82,0,0,.21-.44.21-.44-.09,1.73-.34,3.96-.5,5.68h0Z"/>
        </g>
        <g>
          <path class="cls-2" d="M175.36,126.67v11.58h8.76v-11.71c-2.92.04-5.84.08-8.76.13Z"/>
          <path class="cls-6" d="M175.43,126.74c.52,4.14,1.09,7.53.62,11.51,0,0-.69-.69-.69-.69,2.92.43,5.83.52,8.76.15,0,0-.54.54-.54.54-.42-3.89-.61-7.8-.48-11.71,0,0,1.03,1.01,1.03,1.01-2.38-.04-6.26-.54-8.7-.81h0ZM175.29,126.6c3.2-.59,6.49-1,9.8-1.12.21,4.26.03,8.53-.43,12.77,0,0-.06.59-.06.59,0,0-.48-.05-.48-.05-3.13-.4-6.25-.23-9.37.23-.55-3.99-.14-8.61.54-12.42h0Z"/>
        </g>
        <g>
          <path class="cls-2" d="M207.89,103.6v-11.29h-8.76v11.5c2.92-.07,5.84-.14,8.76-.21Z"/>
          <path class="cls-6" d="M207.82,103.53c-.51-4.04-1.08-7.34-.64-11.22,0,0,.71.71.71.71-2.92-.44-5.83-.54-8.76-.18,0,0,.53-.53.53-.53.42,3.82.61,7.66.48,11.5,0,0-1.04-1.02-1.04-1.02,2.39.01,6.27.48,8.72.74h0ZM207.96,103.67c-3.19.62-6.49,1.07-9.8,1.21-.21-4.19-.02-8.4.44-12.57,0,0,.06-.59.06-.59l.47.05c3.14.41,6.27.21,9.39-.25.52,3.91.11,8.42-.56,12.15h0Z"/>
        </g>
        <g>
          <path class="cls-2" d="M199.13,126.32v11.93h8.76v-12.03c-2.92.03-5.84.06-8.76.1Z"/>
          <path class="cls-6" d="M199.2,126.39c.52,4.26,1.1,7.76.6,11.86,0,0-.67-.67-.67-.67,2.92.43,5.83.49,8.76.13,0,0-.54.54-.54.54-.1-1-.22-2-.29-3.01-.15-2.91-.33-6.12-.18-9.02,0,0,1.02,1.01,1.02,1.01-2.38-.06-6.26-.56-8.7-.84h0ZM199.06,126.25c3.2-.57,6.49-.97,9.8-1.08.19,3.27.04,6.8-.14,10.07-.09,1.19-.23,2.4-.35,3.6-3.28-.43-6.56-.34-9.83.15-.58-4.09-.16-8.83.52-12.74h0Z"/>
        </g>
        <g>
          <path class="cls-2" d="M221.05,123.99l-1.52-2.71,8.88-14.52h-9.5l-6.86,11.64h-4.17v-12.73c-2.92.07-5.84.15-8.76.22v18.34c7.31-.09,14.61-.17,21.92-.25Z"/>
          <path class="cls-6" d="M220.96,123.94c-.64-.99-1.26-1.78-1.8-2.64,0,0,.1-.18.1-.18,2.64-5.03,5.49-9.94,8.41-14.81,0,0,.75,1.33.75,1.33-3.17.04-6.33.01-9.5-.14l.64-.36c-2.17,3.36-5.24,8.02-7.24,11.42,0,0-.09.15-.09.15-1.55,0-3.11,0-4.66.03-.07-4.35-.28-8.71-.43-13.06,0,0,.77.75.77.75-2.92.15-5.84.31-8.76.41,0,0,.92-.94.92-.94.11,6.02.17,12.3.05,18.34,0,0-1.01-.99-1.01-.99,3.51.03,7.01.12,10.63.28,2.79.12,8.42.33,11.22.41h0ZM221.14,124.04c-6.98.4-16.03,1.08-22.99,1.22-.13-6.7-.07-13.61.05-20.3,3.49-.06,6.99-.05,10.48-.04-.15,4.49-.37,8.99-.45,13.48,0,0-.33-.33-.33-.33,1.39.02,2.78.03,4.17.03l-.26.15c1.13-1.95,2.25-3.9,3.3-5.9l3.19-5.96.18-.34.45-.02c3.68-.18,7.38-.18,11.06-.12-3.27,5.26-6.61,10.48-10.18,15.54,0,0,0-.32,0-.32.51,1.02.92,2.04,1.32,2.91h0Z"/>
        </g>
        <g>
          <path class="cls-2" d="M212.76,126.17l6.53,12.08h9.74l-6.82-12.19c-3.15.03-6.3.07-9.45.11Z"/>
          <path class="cls-6" d="M212.85,126.22c2.69,4.18,5.26,7.28,7.01,11.72,0,0-.57-.34-.57-.34,3.2.41,6.54.44,9.74.1,0,0-.48.81-.48.81-2.65-3.83-5.07-7.83-7.21-11.97,0,0,.88.51.88.51-3.02-.09-6.29-.63-9.37-.84h0ZM212.68,126.12c3.12-.41,6.93-.98,10.09-1.08,2.52,4.16,4.78,8.49,6.74,12.94,0,0,.4.89.4.89l-.87-.07c-3.31-.36-6.75-.29-10.05.13-2.71-3.72-4.7-8.74-6.3-12.81h0Z"/>
        </g>
        <g>
          <path class="cls-2" d="M229.98,123.89c2.18-.02,4.37-.05,6.55-.08,0-.05-.02-.1-.02-.15h11.99c4.35-.06,8.71-.12,13.06-.19-.08-8.94-5.7-17.58-16.23-17.58-9.31,0-16.48,7.29-16.48,16.42,0,.54.03,1.06.07,1.58.35,0,.7,0,1.06-.01ZM245.39,112.95c4.04,0,6.8,2.21,7.78,5.82h-16.17c1.16-3.61,4.35-5.82,8.39-5.82Z"/>
          <g>
            <path class="cls-6" d="M229.97,123.79c2.19-.03,4.37-.12,6.55-.3,0,0-.31.36-.31.36-.02-.09-.09-.39-.11-.49,0,0,.4-.03.4-.03,3.68-.27,8.88-.64,12.52-.56,4.17-.03,8.35.3,12.52.36,0,0-.34.35-.34.35.11-4.45-1.58-8.97-4.64-12.06-10.04-10.24-28.51-1.73-27.54,12.48,0,0-.12-.11-.12-.11h1.06ZM229.98,123.99l-1.06.03s-.11,0-.11,0c0,0-.01-.11-.01-.11-1.65-13.36,10.68-22.71,23.11-17.63,6.68,2.86,9.78,10.32,9.98,17.2,0,0,.01.33.01.33,0,0-.35.01-.35.01-6.26.31-12.52,1.03-18.79.61,0,0-6.27-.43-6.27-.43l.33-.37c0,.11.05.41.05.53-2.3-.13-4.6-.18-6.91-.16h0Z"/>
            <path class="cls-6" d="M245.39,112.85c4.77-.13,8.17,1.62,8.63,6.74,0,0-.85-.11-.85-.11-4.04-.81-8.08-.13-12.13.19-1.8.1-3.68.17-5.48.19,0,0,.43-1.41.43-1.41,1.23-4.34,5.27-5.81,9.4-5.59h0ZM245.39,113.05c-3.48.03-6.29,2.94-7.39,6.04,0,0-1.01-1.38-1.01-1.38,5.41-.05,10.79,1.38,16.17.35,0,0-.69.9-.69.9-1.24-2.93-3.61-5.96-7.09-5.91h0Z"/>
          </g>
        </g>
        <g>
          <path class="cls-2" d="M245.45,131.82c-4.08,0-7.2-2.19-8.45-5.93-2.6.03-5.2.06-7.8.09,1.54,7.77,7.94,13.19,16.24,13.19,7.54,0,14.03-4.59,15.68-11.95h-7.78c-1.29,2.88-4.53,4.59-7.9,4.59Z"/>
          <path class="cls-6" d="M245.45,131.92c-3.83.12-7.74-2.1-9.11-5.8,0,0,.67.48.67.48-2.6.21-5.19.29-7.8.25,0,0,.84-1.03.84-1.03,1.03,7.44,7.01,13.06,14.72,12.74,7.07,0,13.79-4.56,15.37-11.56,0,0,.99,1.24.99,1.24-1.3-.01-2.59-.06-3.89-.12-1.3-.07-2.59-.16-3.89-.27l.57-.37c-1.68,3.06-5.18,4.44-8.47,4.44h0ZM245.45,131.72c3.2.03,6.57-1.96,7.45-5.08,3.14-.28,6.31-.44,9.46-.44-.96,8.55-9.31,14.5-17.63,13.53-7.95-.63-15.21-6.52-16.59-14.55,3.13-.18,6.28-.15,9.42.05.64,3.78,4.01,6.63,7.89,6.49h0Z"/>
        </g>
        <g>
          <path class="cls-2" d="M278.29,102.45v-4.51h-8.76v4.61c2.92-.03,5.84-.07,8.76-.1Z"/>
          <path class="cls-6" d="M278.22,102.38c-.38-1.85-.72-3.14-.79-4.44l.86.86c-2.94.21-5.81-1.07-8.76-.32,0,0,.54-.54.54-.54.28,1.53.4,3.07.48,4.61,0,0-1.03-1.01-1.03-1.01,3.01-.23,5.52.35,8.7.84h0ZM278.36,102.52c-2.96.82-6.68,1.27-9.9.99.1-1.86.19-3.73.53-5.57,0,0,.1-.61.1-.61l.44.07c2.21.47,4.39.12,6.57-.29,1-.14,2.07-.04,3.08.01-.01,1.81-.35,4.07-.82,5.39h0Z"/>
        </g>
        <g>
          <path class="cls-2" d="M269.53,123.35c2.92-.05,5.84-.11,8.76-.17v-9.49h5.51v-6.92h-5.51v-2.23c-2.92.03-5.84.07-8.76.11v2.12h-5.45v6.92h5.45v9.66Z"/>
          <path class="cls-6" d="M269.6,123.28c2.49-.29,6.25-.68,8.68-.85,0,0-.73.74-.73.74-.1-3.16-.2-6.33-.11-9.49,0,0,.03-.88.03-.88l.83.02c1.84.04,3.68.19,5.51.29l-.57.57c.15-2.31.27-4.61.27-6.92,0,0,.3.3.3.3-1.98.01-3.95.03-5.93.16-.01-.31-.12-2.34-.13-2.69,0,0,.55.55.55.55-2.92.21-5.84.39-8.76.48l.91-.92c.01.66.05,2.43.06,3.07-2.14.03-4.3.11-6.43.11,0,0,1.06-1.06,1.06-1.06,0,2-.02,4.89-.07,6.92,0,0-.99-.99-.99-.99,2.09.06,4.18.13,6.27.24-.13,3.01-.51,7.26-.75,10.34h0ZM269.46,123.42c-.23-2.95-.6-6.79-.72-9.73,0,0,.78.79.78.79-1.82.09-3.64.14-5.45.2l-.97.03-.02-1.02c-.04-2.46-.1-5.54-.08-7.98,2.17-.01,4.35.06,6.51.1,0,0-.96.96-.96.96l.04-2.12.02-.92h.89c3.11.02,6.23.15,9.34.3-.02.3-.11,2.39-.13,2.74,0,0-.44-.44-.44-.44,1.94.12,3.87.13,5.81.14,0,2.59.14,5.17.3,7.75-2.04.1-4.07.27-6.11.32,0,0,.86-.86.86-.86.09,3.16-.01,6.33-.11,9.49,0,0-.02.76-.02.76-2.93-.02-6.62-.3-9.55-.52h0Z"/>
        </g>
        <g>
          <path class="cls-2" d="M275.24,125.33c-1.9.04-3.81.06-5.71.09v12.83h8.76v-12.99c-1.02.02-2.03.05-3.05.07Z"/>
          <path class="cls-6" d="M275.24,125.43c-1.92,0-3.81.37-5.7.66,0,0,.66-.67.66-.67.72,4.29-.54,8.54-.35,12.83,0,0-.32-.32-.32-.32,1.46-.04,2.92-.21,4.38-.35,1.46-.16,2.92-.23,4.38-.28l-.95.95c-.13-3.15-.23-6.62.16-9.74,0,0,.47-3.25.47-3.25l.32.31c-1.02-.11-2.04-.16-3.05-.14h0ZM275.24,125.23c1.1-.04,2.21-.14,3.31-.32-.01.02.51,3.45.52,3.6.27,2.16.29,4.32.27,6.49-.02.7-.12,3.58-.14,4.23-3.34-.03-6.67-.55-10-.67,0,0,0-.31,0-.31.17-4.53-1.15-9.04-.25-13.56,2.08.22,4.18.61,6.28.54h0Z"/>
        </g>
      </g>
      <g>
        <path class="cls-2" d="M22.91,45.33c1.61-.04,3.22-.08,4.83-.12v-1.23h7.84c1.82,0,3.31.34,4.5.93,3.93-.1,7.87-.2,11.8-.32-2.48-5.19-7.87-8.39-15.44-8.39h-18.19v9.3c1.55-.07,3.1-.13,4.66-.17Z"/>
        <path class="cls-6" d="M22.91,45.23c1.61-.05,3.22-.12,4.83-.26l-.23.24c-.02-.22-.08-1.33-.1-1.52,2.19-.16,4.38-.34,6.57-.48,2.19-.16,4.48-.13,6.49.91,0,0-.41-.09-.41-.09,3.87-.02,7.94.25,11.81.24,0,0-.28.46-.28.46-2.49-5.77-9.13-7.84-14.96-7.63-6.12.12-12.26.28-18.39.01,0,0,.91-.91.91-.91-.15,3.1-.49,6.2-.67,9.3l-.26-.24c1.56.04,3.12.02,4.67-.03h0ZM22.91,45.43c-1.63.07-3.27.18-4.9.34,0,0-.02-.27-.02-.27-.2-3.39-.58-6.78-.71-10.17,3.38-.16,6.77-.21,10.15-.19,3.07.02,6.12.11,9.2.17,6.47.05,13.04,3.55,15.75,9.58-4.12.2-8.38.72-12.49.91-.89-.47-1.88-.7-2.9-.86-3.06-.23-6.19-.37-9.25-.64,0,0,.32-.32.32-.32-.01.17-.09,1.34-.09,1.48-1.68-.07-3.37-.07-5.05-.03h0Z"/>
      </g>
      <g>
        <path class="cls-2" d="M23.71,69.76c1.34.05,2.68.08,4.03.09v-2.59h8.76c10.54,0,16.91-6.25,16.91-15.56,0-1.65-.21-3.2-.61-4.64-3.34.08-6.68.16-10.02.24.82,1.28,1.2,2.81,1.2,4.4,0,4.17-2.45,7.78-8.52,7.78h-7.72v-11.82c-1.61.04-3.22.08-4.83.12-1.55.04-3.11.04-4.66.12v21.74c1.82-.01,3.65.06,5.47.12Z"/>
        <path class="cls-6" d="M23.72,69.66l4.03.06-.14.13-.07-2.59s0-.19,0-.19c0,0,.21,0,.21,0,6.27-.43,13.27.29,18.7-3.31,5.44-3.37,7.45-10.51,6.01-16.59,0,0,.37.28.37.28-3.34-.01-6.69.08-10.03.19l.26-.5c1.77,2.83,1.83,6.7.05,9.54-3.39,5-10.22,3.36-15.36,3.75,0,0-.93,0-.93,0,0,0,0-.95,0-.95-.04-3.94-.12-7.88-.12-11.82l1.08,1.06c-3.17.09-6.33.13-9.47.18l.95-1c-.05,3.62-.14,7.25-.35,10.87-.11,3.2-.42,7.72-.47,10.87,0,0-.19-.18-.19-.18,1.83.1,3.65.15,5.47.21h0ZM23.71,69.86c-1.88-.02-3.76-.06-5.65-.04-.09-3.21-.32-7.8-.48-11.06-.22-3.94-.31-7.89-.36-11.84,3.5-.13,7.01-.26,10.49-.32,0,0,1.08-.02,1.08-.02v1.08c0,3.94-.08,7.88-.12,11.82l-.94-.94c2.12.02,4.24.05,6.35.11,2.06.07,4.03.07,5.88-.82,3.89-1.79,4.61-7.53,2.23-10.85,3.53-.05,7.06-.12,10.59-.3,0,0,.28-.01.28-.01l.09.29c1.96,6.44.33,14.57-5.76,18.29-5.94,3.89-13.08,2.29-19.67,2.21,0,0,.2-.2.2-.2,0,0-.07,2.59-.07,2.59v.14s-.14,0-.14,0c0,0-4.03-.13-4.03-.13h0Z"/>
      </g>
      <g>
        <path class="cls-2" d="M23.24,72.19c-1.65-.06-3.33-.13-4.99-.12v10.09h9.5v-9.87c-1.5-.02-3-.04-4.5-.09Z"/>
        <path class="cls-6" d="M23.23,72.29c-1.66-.07-3.33.21-4.99.43,0,0,.65-.65.65-.65.65,3.38-.21,6.73-.34,10.08,0,0-.31-.31-.31-.31,3.17.09,6.33-.59,9.5-.64,0,0-.95.95-.95.95-.15-3.3-.25-6.61.36-9.87,0,0,.59.59.59.59-1.5-.29-3-.56-4.5-.59h0ZM23.24,72.09c1.66.04,3.33-.23,4.98-.47.17,1.03.37,2.1.45,3.13.22,2.79.12,5.59-.03,8.39-3.57,0-7.13-.79-10.7-.66-.12-3.72-1.07-7.43-.23-11.15,1.84.33,3.69.75,5.53.77h0Z"/>
      </g>
      <g>
        <path class="cls-2" d="M66.64,44.15v-7.94h-8.76v8.21c2.92-.09,5.84-.18,8.76-.27Z"/>
        <path class="cls-6" d="M66.57,44.08c-.45-2.85-.9-5.16-.79-7.88,0,0,.86.86.86.86-2.91-.33-5.82-.86-8.76-.33,0,0,.53-.53.53-.53.38,2.73.52,5.47.54,8.21,0,0-1.1-1.06-1.1-1.06,2.67-.04,5.32.33,8.72.73h0ZM66.72,44.22c-2.7.66-6.52,1.24-9.89,1.31-.04-3.11.1-6.23.53-9.32,0,0,.08-.58.08-.58l.45.06c3.22.6,6.38-.17,9.57-.38.22,2.9-.11,6.22-.74,8.92h0Z"/>
      </g>
      <g>
        <path class="cls-2" d="M66.64,68.9v-18.24h-8.76v18.58c2.92-.11,5.84-.23,8.76-.34Z"/>
        <path class="cls-6" d="M66.57,68.83c-.68-6.43-1.11-11.94-.37-18.17,0,0,.45.45.45.45-2.92-.25-5.84-.14-8.76.09,0,0,.53-.53.53-.53.5,6.18.68,12.39.37,18.58,0,0-.93-.9-.93-.9,2.71.03,5.5.29,8.72.49h0ZM66.72,68.97c-2.84.47-6.36,1.01-9.68,1.25-.32-4.97-.22-9.94,0-14.91.07-1.74.24-3.48.36-5.21,0,0,.49.03.49.03,3.05.24,6.12.35,9.17.05.7,6.08.46,12.91-.34,18.79h0Z"/>
      </g>
      <g>
        <path class="cls-2" d="M60.94,71.69c-1.02.04-2.04.06-3.06.1v10.37h8.76v-10.7c-1.9.08-3.8.17-5.7.24Z"/>
        <path class="cls-6" d="M60.94,71.79c-1.02.03-2.03.15-3.05.34,0,0,.33-.34.33-.34.79,3.46.57,6.9.05,10.37,0,0-.39-.39-.39-.39,2.93.31,5.85-.2,8.76-.44,0,0-.84.84-.84.84-.18-3.52-.42-7.2.04-10.7,0,0,.83.8.83.8-1.68-.19-4.06-.56-5.73-.46h0ZM60.94,71.59c1.95-.07,4.46-.7,6.38-1.08.64,4.11.33,8.4.11,12.54-3.3-.21-6.59-.86-9.9-.46-.16-1.87-.54-3.74-.54-5.61-.07-1.85.3-3.71.61-5.56,1.11.14,2.23.22,3.33.18h0Z"/>
      </g>
      <g>
        <path class="cls-2" d="M80.85,68.45c-.15-.67-.23-1.37-.23-2.1,0-4.9,3.74-8.76,9.01-8.76,3.68,0,6.62,2.02,7.9,4.84h8.21c-1.53-7.78-8.03-12.62-16.11-12.62-10.11,0-17.28,7.23-17.28,16.54,0,.8.07,1.58.17,2.34,2.78-.1,5.56-.18,8.34-.24Z"/>
        <path class="cls-6" d="M80.77,68.39c-.78-2.03-.54-4.51.37-6.51,3.08-6.84,14.27-6.92,17.03.25,0,0-.65-.42-.65-.42,2.74.11,5.47.3,8.21.37l-.34.41c-.67-4.15-3.35-7.94-7.04-9.83-3.63-1.94-7.95-2.34-11.95-1.62-8.3,1.44-14.1,9.16-13.27,17.57,0,0-.64-.55-.64-.55,2.75.06,5.45.24,8.28.33h0ZM80.92,68.51c-2.72.28-6.2.66-8.93.85-1.58-6.75,1.49-14.54,7.71-17.99,10.32-5.84,23.88-1.01,26.36,10.99,0,0,.09.4.09.4-2.88.06-5.76.26-8.64.38,0,0-.42.02-.42.02,0,0-.23-.44-.23-.44-2.84-5.54-11.62-5.68-14.74-.31-1.12,1.81-1.4,4-1.21,6.1h0Z"/>
      </g>
      <g>
        <path class="cls-2" d="M97.35,70.82c-1.38,2.65-4.14,4.47-7.74,4.47s-6.36-1.74-7.85-4.4c-2.92.07-5.84.17-8.75.29,1.99,7.01,8.3,11.9,16.61,11.9s14.45-4.6,16.04-12.13c-2.77-.05-5.54-.09-8.3-.12Z"/>
        <path class="cls-6" d="M97.41,70.91c-2.55,6.77-13.28,6.73-16.39.4,0,0,.77.44.77.44-1.46.02-2.92-.04-4.38-.07l-4.38-.11.37-.5c2.47,11.03,17.43,14.06,25.85,8.02,2.8-1.93,4.84-4.9,5.73-8.29l.67.84c-2.06-.15-6.19-.52-8.24-.74h0ZM97.3,70.73c2.67-.24,6.44-.41,9.17-.53,0,0-.13.88-.13.88-1.5,10.43-13.1,15.19-22.42,11.94-5.38-1.83-9.58-6.39-11.3-11.74,0,0-.15-.46-.15-.46l.51-.05,4.37-.4c1.62-.14,3.24-.31,4.87-.38,2.8,5.7,11.67,6.11,15.07.73h0Z"/>
      </g>
      <g>
        <path class="cls-2" d="M119.82,42.69v-6.49h-8.76v6.67c2.92-.07,5.84-.13,8.76-.18Z"/>
        <path class="cls-6" d="M119.75,42.62c-.47-2.59-.82-4.46-.82-6.42l.89.89c-1.46,0-2.92-.37-4.38-.52-1.46-.16-2.92-.05-4.38.16l.53-.53c.35,2.21.46,4.43.53,6.67,0,0-1.09-1.06-1.09-1.06,2.97-.08,5.57.39,8.71.82h0ZM119.89,42.76c-3.01.75-6.66,1.24-9.92,1.17.06-2.58.15-5.17.56-7.73,0,0,.09-.6.09-.6l.45.06c3.25.7,6.43-.42,9.65-.36.06,2.51-.27,5.51-.82,7.45h0Z"/>
      </g>
      <g>
        <path class="cls-2" d="M133.64,69.07l-2.17-3.88,8.88-14.52h-9.5l-6.86,11.64h-4.17v-17.19c-1.83.03-3.67.05-5.5.08-1.09.02-2.17.06-3.26.08v23.33c7.52.17,15.05.37,22.57.46Z"/>
        <path class="cls-6" d="M133.55,69.02c-.89-1.41-1.74-2.58-2.52-3.82,2.72-5.08,5.62-10.05,8.58-14.99,0,0,.74,1.32.74,1.32-3.17.04-6.33.03-9.5-.07,0,0,.69-.4.69-.4-2.15,3.37-5.2,8.05-7.27,11.4,0,0-.1.17-.1.17h-.19s-4.17-.03-4.17-.03c0,0-.3,0-.3,0,0-2.96-.04-5.93-.15-8.89,0,0-.29-8.6-.29-8.6l.75.74-8.75.35s.9-.92.9-.92c.13,7.66.2,15.65.04,23.33,0,0-.94-.96-.94-.96,7.51.28,14.79.96,22.47,1.37h0ZM133.72,69.12c-7.67.15-15.77.52-23.61.45-.02-.41-.07-6.2-.09-6.79-.08-6.13.06-12.27.13-18.4,0,0,.89-.02.89-.02,3.18-.07,6.37.01,9.55.02-.17,5.36-.49,12.63-.47,17.93,0,0-.3-.3-.3-.3l4.17-.03-.29.16c1.11-1.96,2.18-3.95,3.24-5.93l3.21-5.95.21-.38h.48c3.67-.12,7.37-.11,11.05-.06-3.26,5.26-6.6,10.47-10.11,15.57,0,0,0-.38,0-.38.71,1.43,1.33,2.87,1.93,4.12h0Z"/>
      </g>
      <g>
        <path class="cls-2" d="M125.4,71.38l5.82,10.77h9.74l-5.94-10.62c-3.21-.03-6.41-.09-9.62-.15Z"/>
        <path class="cls-6" d="M125.48,71.43c2.43,3.74,4.76,6.44,6.36,10.38,0,0-.63-.37-.63-.37,3.24.45,6.49.54,9.74.16,0,0-.48.82-.48.82-.58-.84-1.17-1.67-1.73-2.52-1.56-2.51-3.3-5.25-4.62-7.87,0,0,.88.52.88.52-3.08-.14-6.39-.82-9.52-1.12h0ZM125.31,71.33c3.17-.35,7.06-.86,10.27-.82,2.2,3.58,4.18,7.52,5.86,11.38,0,0,.4.92.4.92-3.66-.48-7.32-.42-10.98.1-2.4-3.36-4.16-7.93-5.56-11.58h0Z"/>
      </g>
      <g>
        <path class="cls-2" d="M112.34,71.09c-.43,0-.85-.02-1.28-.03v11.09h8.76v-10.89c-2.49-.06-4.99-.12-7.48-.17Z"/>
        <path class="cls-6" d="M112.34,71.19c-.43,0-.85-.01-1.28.01,0,0,.14-.14.14-.14.23,2.77.99,5.52.7,8.32-.05.92-.18,1.85-.3,2.77,0,0-.54-.54-.54-.54,2.93.44,5.84.21,8.76-.15,0,0-.69.69-.69.69-.21-1.82-.24-3.63-.32-5.45-.08-1.82-.05-3.63.06-5.45l.94.96c-2.48-.21-4.96-1-7.46-1.04h0ZM112.34,70.99c2.8.08,5.59-.73,8.38-.72.28,3.96.15,7.93-.21,11.88,0,0-.09.76-.09.76l-.61-.06c-3.07-.39-6.15-.59-9.23-.09-.27-2.04-.53-4.09-.38-6.16.13-1.9.62-3.8.72-5.7.47.05.94.07,1.41.08h0Z"/>
      </g>
      <g>
        <g>
          <path class="cls-2" d="M164.54,81.86c-5.14,0-8.76-3.65-8.76-8.45s3.62-8.36,8.76-8.36,8.76,3.65,8.76,8.36-3.62,8.45-8.76,8.45ZM164.54,77.92c2.66,0,4.58-1.95,4.58-4.52s-1.92-4.43-4.58-4.43-4.58,1.95-4.58,4.43,1.92,4.52,4.58,4.52Z"/>
          <g>
            <path class="cls-6" d="M164.54,81.95c-8.76.29-13-8.7-6.42-14.82,4.51-4.15,12.99-3.48,15.5,2.6,2.73,6.68-2.22,12.5-9.08,12.21h0ZM164.54,81.76c6.83.15,10.21-9.11,5.56-13.7-4.98-4.84-14.23-2.36-13.49,5.39.18,4.22,3.36,8.41,7.93,8.31h0Z"/>
            <path class="cls-6" d="M164.54,77.83c2.41.02,3.49-2.39,3.75-4.39.51-2.3-1.33-4.39-3.75-3.92-2.04.36-3.54,1.88-3.52,3.91-.06,1.98,1.18,4.4,3.52,4.39h0ZM164.54,78.02c-2.78.16-5.64-1.39-5.64-4.57,0-5.03,5.74-6.52,9.12-3.45,3.91,3.42,1.57,8.3-3.48,8.02h0Z"/>
          </g>
        </g>
        <g>
          <path class="cls-2" d="M175.54,87.58v-3.44h1.64c.84,0,1.3-.43,1.3-1.36v-13.8h-2.75v-3.5h2.75v-2.66c0-2.85,1.7-4.64,5.32-4.64h2.04v3.44h-1.61c-.84,0-1.33.43-1.33,1.36v2.51h2.94v3.5h-2.94v13.96c0,2.85-1.7,4.64-5.32,4.64h-2.04Z"/>
          <path class="cls-6" d="M175.47,87.65c-.12-1.16-.26-2.55-.35-3.87.26-.03,1.24-.09,1.52-.12.24-.01.71-.02.92-.12.34-.15.31-.52.27-1.37-.19-4.4-.3-8.8-.18-13.2,0,0,.84.84.84.84-1.16-.02-2.34-.11-3.51-.16.02-.39.19-3.7.22-4.18,0,0,.03-.56.03-.56l.5.03,2.75.14-.39.39.1-3.21c.38-4.48,4.66-4.59,8.16-4.66.03.23.17,3.66.2,4,0,0,.03.68.03.68-.46.02-1.83.07-2.31.09-.2,0-.33.05-.4.09-.24.16-.07,1.12-.1,1.43,0,0,.04,1.57.04,1.57l-.91-.91c.67-.01,3.26-.06,3.89-.07,0,.63.07,3.78.08,4.48,0,0,.02,1.01.02,1.01-1.31.04-2.68.06-3.99.05,0,0,1.06-1.06,1.06-1.06.02,4.5-.11,9.02-.29,13.53-.03,5.14-4.1,5.85-8.21,5.14h0ZM175.61,87.51c4.93-.36,7.1-1.02,6.46-6.51-.16-4.36-.26-8.72-.22-13.08,1.31,0,2.69,0,3.99.03,0,0-1.03,1.03-1.03,1.03l.07-3.5.97.97-2.94-.06s-.93-.02-.93-.02l.02-.89.04-1.57c0-.98,0-2.35,1.11-2.85.77-.41,1.92-.12,2.7-.15,0,0-.71.71-.71.71l.17-3.44.54.54c-2.01-.06-4.26-.44-5.87.97-1.71,1.55-1.07,4.09-1.1,6.17,0,0-.4.02-.4.02l-2.75.14.53-.53.18,3.5-.71-.71c.92-.04,1.84-.11,2.75-.12h.81c.13,3.2.08,6.42,0,9.64-.04,1.65-.1,3.3-.18,4.95.05,1.06-.79,2.06-1.92,1.93,0,0-.55-.03-.55-.03,0,0-1.1-.08-1.1-.08l.4-.4-.33,3.37h0Z"/>
        </g>
      </g>
      <g>
        <g>
          <path class="cls-2" d="M25.38,104.29v12.41h-4.43v-12.41h-2.75v-3.5h2.75v-4.46h4.43v4.46h2.79v3.5h-2.79Z"/>
          <path class="cls-6" d="M25.45,104.36c.47,4.61.84,8.74.83,13.23-2.03.03-4.08-.06-6.1-.22.39-4.35.66-8.71.3-13.08,0,0,.48.48.48.48l-2.75.18-.61.04c-.13-1.67-.23-3.36-.28-5.03,0,0,.89-.03.89-.03l2.75-.08-.94.94c-.05-1.82-.1-3.68-.13-5.51,2.17-.02,4.38-.03,6.54.06-.01,1.81-.09,3.64-.17,5.45,0,0-.87-.87-.87-.87.53.03,3.05.18,3.53.21-.1,1.53-.22,3.08-.37,4.61-1.01-.12-1.92-.26-3.09-.39h0ZM25.31,104.22c.85-.11,1.83-.24,2.86-.34l-.42.42c-.12-1.17-.21-2.33-.29-3.5l.7.7c-.62.04-3.04.18-3.61.21-.07-1.78-.17-3.59-.2-5.37,0,0,1.02,1.02,1.02,1.02-1.48.05-2.95.04-4.43.03l1.06-1.06c-.03,1.49-.08,2.97-.11,4.46l-.02.97c-.62-.02-3.01-.09-3.67-.11,0,0,.86-.86.86-.86-.04,1.17-.11,2.33-.2,3.5l-.66-.66c.38.02,2.96.2,3.26.22-.37,4.29-.19,8.57.21,12.85,0,0-.72-.72-.72-.72,1.48-.11,2.95-.17,4.43-.17l-.89.89c.02-4.12.33-8.54.82-12.48h0Z"/>
        </g>
        <g>
          <path class="cls-2" d="M35.6,106.08v10.62h-4.43v-23.21h4.43v9.84c1.18-1.83,3.19-2.97,5.42-2.97,3.68,0,5.85,2.51,5.85,6.31v10.03h-4.43v-8.88c0-2.04-.93-3.5-3.22-3.5-1.64,0-2.94.87-3.62,1.76Z"/>
          <path class="cls-6" d="M35.7,106.11c.31,3.79.52,7.5.64,11.26,0,0-.73.03-.73.03-1.74.07-3.5.09-5.24.14,0,0-.01-.85-.01-.85-.28-7.62.3-15.6.51-23.21,0,0,0-.32,0-.32,1.58.02,3.16.03,4.74.01,0,0,.31,0,.31,0v.32c.03,3.28.18,6.56.31,9.84l-1.13-.33c2.43-4.55,10.13-4.76,12.12.3.96,2.23.64,4.53.72,6.85.01,2.52,0,5.06-.05,7.59-2.12-.02-4.28-.05-6.41-.12.08-3.04.19-7.13.33-10.12.19-3.46-4.31-3.45-6.1-1.38h0ZM35.51,106.05c1.31-2.08,4.72-3.03,6.6-1.08,1.57,2.03.89,4.77,1.16,7.11,0,0,.13,4.62.13,4.62,0,0-.95-.95-.95-.95,1.48-.04,2.95-.06,4.43-.08l-1.03,1.03c-.04-2.18-.04-4.37-.03-6.55-.08-2,.34-4.24-.39-6.11-1.47-3.85-7.18-3.6-9.3-.38,0,0-1.22,1.71-1.22,1.71.15-3.95.35-7.94.39-11.89,0,0,.31.31.31.31-1.48-.02-2.95-.01-4.43,0l.32-.32c.03,3.35.33,8.21.46,11.61.17,3.87.11,7.74.05,11.61l-.83-.83c1.48.04,2.95.06,4.43.12l-.71.71c.12-3.55.31-7.14.61-10.65h0Z"/>
        </g>
        <g>
          <path class="cls-2" d="M58.92,117.16c-4.83,0-8.39-3.62-8.39-8.51,0-4.61,3.62-8.3,8.33-8.3,5.35,0,8.2,4.43,8.2,8.98h-12.66c.31,2.57,2.07,4.12,4.52,4.12,1.7,0,3.34-.87,3.99-2.32h3.93c-.84,3.71-4.12,6.04-7.92,6.04ZM54.65,106.85h8.17c-.5-1.83-1.89-2.94-3.93-2.94s-3.65,1.11-4.24,2.94Z"/>
          <g>
            <path class="cls-6" d="M58.92,117.26c-6.69.25-11.49-7.08-8.16-13.03,3.12-5.84,12.4-5.67,15.44.12.96,1.68,1.41,3.59,1.47,5.52-2.31.12-4.63.27-6.94.32,0,0-6.33.14-6.33.14l.99-1.12c.12.81.42,1.54.91,2.08,1.43,1.67,4.71,1.41,5.74-.55,0,0,.31-.58.31-.58,1.81.05,3.64.17,5.45.32-.85,4.13-4.77,6.91-8.88,6.79h0ZM58.92,117.06c3.52.08,6.85-2.61,7.21-6.1,0,0,.71.89.71.89-1.31.1-2.62.18-3.93.23l.87-.56c-1.5,3.49-6.72,3.98-9.09,1.15-1.09-1.25-1.28-2.84-1.42-4.36,0,0,1.12.02,1.12.02,3.74.08,8.98.18,12.66.43,0,0-.57.57-.57.57.07-1.58-.19-3.21-.91-4.65-2.07-4.63-8.79-5.07-11.97-1.42-4.6,4.74-1.89,13.92,5.31,13.8h0Z"/>
            <path class="cls-6" d="M54.73,106.8c1.62-.33,2.93-.64,4.41-.74,1.24,0,2.39.68,3.68.48,0,0-.31.4-.31.4-.97-2.28-3.82-2.28-5.81-1.55-.76.29-1.34.9-1.97,1.4h0ZM54.57,106.91c-.3-3.7,4.75-5.28,7.26-2.95.99.93,1.17,2.13,1.38,3.24-1.6-.28-3.27.47-4.88.44-1.28-.07-2.7-.28-3.76-.74h0Z"/>
          </g>
        </g>
      </g>
      <g>
        <path class="cls-2" d="M268.62,29.33c-1.92.49-3.74,1.43-5.69,1.76-1.95.32-4.22-.14-5.34-1.87-.26-.4-.44-.92-.25-1.35.18-.42.63-.6,1.04-.75,2.56-.93,5.09-1.93,7.6-3.02,1.06-.46,2.23-1.07,2.56-2.23.2-.71.03-1.46-.13-2.18-.3-1.28-.59-2.56-.89-3.85-.07-.31-.16-.64-.4-.83-.36-.28-.87-.11-1.28.07-2.52,1.05-5.22,1.57-7.93,1.55-.88,0-1.97.06-2.34.91-.3.7.1,1.48.44,2.16.71,1.39,1.25,2.92,1.26,4.5s-.59,3.22-1.8,4.15c-1.78-3.3-3.47-6.67-5.05-10.09-2.24,1-4.51,2.01-6.89,2.5-2.39.49-4.94.43-7.15-.66-.49-.24-.98-.55-1.29-1.03s-.38-1.16-.06-1.62c.18-.26.46-.42.74-.55,4.41-2.19,9.82-1.35,14.04-3.92-3.12.33-6.21-.72-9.19-1.76-.95-.33-1.93-.68-2.64-1.41-.37-.38-.67-.92-.54-1.44.2-.85,1.26-1.01,2.08-.97,5.48.29,10.96,1.98,16.38,1.1-3.51-1.26-6.83-3.11-9.81-5.45-.29-.23-.6-.48-.75-.84s-.08-.85.25-1.03c.21-.12.47-.08.71-.03,5.08,1.02,9.93,3.18,15.05,3.91,2.44.35,4.93.36,7.33.96,2.34.59,4.53,1.72,6.7,2.84,1.75.9,3.49,1.81,5.24,2.71.63.32,1.27.66,1.75,1.19.79.86,1.06,2.1,1.29,3.28.34,1.67.67,3.43.16,5.05-.75,2.43-3.34,5.99-5.68,6.96-2.94,1.22-6.49.52-9.55,1.3Z"/>
        <g>
          <g>
            <path class="cls-4" d="M241.45,72.63c.43-.25.8-.63,1.05-1.08.13-.22.36-.45.3-.74-.05-.28-.18-.57-.55-.79-.32-.01-.71.49-.77.58-.12.17,0,.39,0,.6,0,.21-.02.42-.04.65-.01.23-.06.45-.1.7l.11.09h0Z"/>
            <g>
              <path class="cls-1" d="M249.66,66.95c0,3.55-18.36,26.66-36.01,4.91-9.32-16.55,5.13-23.57,15.98-27.12,7.51-3.55,23.36,7.11,20.03,22.22Z"/>
              <path class="cls-4" d="M226.1,59.81c.95-3.88,5.09-6.03,8.68-5.47,5.48.74,7.67,8.14,5.22,12.92-4.55,9.15-17.49,8.1-22.15-.41-4.12-7.31-1.11-16.68,5.91-20.39,6.36-3.61,14.65-3,20.33,1.78,5.6,4.85,7.99,13.53,5.25,20.81-3.85,9.86-15.06,14.48-24.5,12.16-13.38-2.89-20.45-17.5-14.11-30.58,6.63-12.92,21.31-9.22,32.48-12.04,4.4-1.15,8.78-3.46,11.09-7.82,0,0,.22.12.22.12-3.12,7.19-11.12,9.6-17.93,10.54-6.34.86-14.39,1.09-19.5,5.3-3.48,2.75-5.51,7.21-5.91,11.77-1.64,15.85,14.43,24.78,27.21,19.26,4.09-1.8,7.8-4.97,9.68-9.3,3.9-9-1.33-20.63-10.55-22.77-8.44-2.49-19.61,3.28-19.44,13.44-.25,9.82,11.12,16.1,18.3,9.76,3.35-2.78,4.07-8.63.95-11.87-3.02-3.13-9.34-1.81-11,2.85l-.24-.08h0Z"/>
              <path class="cls-5" d="M249.95,31.83c0,.08.11.12.15.1.04-.06-.02-.17.01-.19.41-.38,1.18-.74,1.76-.84.45-.06.96.02,1.41-.09.58-.13,1.07-.58,1.48-1.03,1.07,2.06,1.75,4.36,1.16,6.72,0,0-.16.05-.16.05-1.47-1.58-1.9-3.87-1.52-6,0,0,.59.33.59.33-1.04.09-1.71.85-2.5,1.46-.7.38-1.43.44-2.23.34-.36-.04-.72-.51-.47-.88.05-.1.2-.19.3-.15v.18h.01Z"/>
              <g>
                <g>
                  <path class="cls-3" d="M222.16,37.25c-2.84.4-5.6,1.43-8.29,2.57.23,1.03.06,2.17-.46,3.06-.89-.18-1.78-.37-2.68-.55-.63-.13-1.27-.26-1.9-.11-.8.19-1.47.81-2.08,1.43-4.51,4.66-7.63,10.97-8.73,17.68-.03.16-.05.33.03.46.1.17.31.19.49.2,10.14.37,20.39-2.2,29.49-7.38,1.94-1.1,3.84-2.33,5.47-3.94.99-.97,1.89-2.1,2.4-3.45s.57-2.96-.06-4.23c-1.05-2.11-4.03-3.6-5.9-4.72-2.29-1.37-5.26-1.4-7.8-1.02Z"/>
                  <path class="cls-4" d="M222.18,37.38c-2.86.4-5.55,1.57-8.12,2.92l.3-.61c.4,1.31.16,2.81-.53,4.02-.33-.04-2.9-.37-3.29-.42-1.74-.47-2.56.72-3.74,2.02-3.02,3.47-5.6,7.37-7.23,11.87-.54,1.34-.89,3.15-1.19,4.36,1.93.16,4.03.03,5.98-.15,7.2-.88,14.18-3.32,20.66-6.69,3.78-2.21,10.47-5.35,10.12-10.42-.12-1.35-1.47-2.71-2.9-3.8-1.46-1.04-2.92-2.31-4.65-2.83-1.73-.5-3.59-.54-5.4-.27h0ZM222.15,37.12c1.82-.26,3.69-.4,5.56-.07,1.88.31,3.53,1.31,5.26,2.15,3.15,1.52,5.4,4.28,4.22,8.15-2.47,7.44-15.03,11.92-21.69,13.64-5.45,1.25-11.06,1.52-16.61,1.42-.23-.02-.42.06-.84-.11-.39-.16-.48-.77-.38-1.1.84-5.42,2.47-10.77,5.66-15.23,1.83-2.35,4.21-5.93,7.58-4.63,0,0,2.66.77,2.66.77l-.76.35c.49-.67.73-1.62.61-2.53l-.07-.49c2.89-.95,5.81-1.9,8.82-2.33h0Z"/>
                </g>
                <path class="cls-4" d="M233.44,40.88c-3.72,1.37-7.58,2.01-11.21,3.58-4.53,2.34-8.74,5.16-13.05,7.93,0,0-.05-.07-.05-.07,4-4.33,9.27-6.8,14.56-8.79.91-.39,2.19-.99,3.12-1.37,2.04-.67,4.61-1.46,6.63-1.28h0Z"/>
                <path class="cls-4" d="M218.54,41.69l-.35.34-.08-.16c1.99-.73,4.39-1.56,6.39-.4,0,0-.01.09-.01.09-.56.14-1.08.19-1.61.23-1.58,0-3.14-.08-4.72.26,0,0-.46.08-.46.08.2-.13.59-.38.79-.51l.05.07h0Z"/>
                <path class="cls-4" d="M223.92,48.46c.11-.79.06-1.58.19-2.33.06-.14.31-.72.56-.69.38.55.31,1.09.04,1.62-.19.5-.42.98-.7,1.43l-.08-.03h0Z"/>
              </g>
            </g>
          </g>
          <g>
            <g class="cls-7">
              <path class="cls-6" d="M274.01,28.82c-2.75.47-5.52.94-8.17,1.72-1.3.4-2.6,1.04-4.04,1.31-2.21.54-5.17-.57-5.53-3.26-.18-1.08.4-1.97,1.42-2.24,0,0,3.96-1.43,3.96-1.43l3.96-1.41c1.21-.43,2.25-1.07,2.41-2.49.25-1.9-.68-4.35-1.12-6.29-.46-2.43-2.28-3.19-4.37-2.39-2.22.98-4.19,2.58-6.09,4.13-2.1,1.47-.08,2.84.67,4.4,1,2.03,1.18,4.67.12,6.72-.82,1.42-2.29,1.58-2.96-.05,0,0-.49-.98-.49-.98-.95-1.91-2.02-3.99-2.95-5.9-.46-1.03-1.19-2.06-1.26-3.3-.09-2.16,1.59-3.72,2.92-5.01,3.1-2.98,6.7-6.2,11.09-6.69,2.94-.34,5.71.79,8.43,1.62,2.36.79,5.69,1.79,8.03,2.59.72.25,1.49.68,1.99,1.32.53.65.84,1.37,1.15,2.03,1.92,3.67,2.08,7.38-.33,10.88-1.36,1.76-3.14,3.03-4.9,4.26,0,0-.07-.11-.07-.11,1.62-1.34,3.32-2.71,4.53-4.48,2.08-3.44,1.79-6.61-.12-10.06-.61-1.3-1.21-2.33-2.59-2.69,0,0-4.01-1.18-4.01-1.18l-4.03-1.2c-2.6-.74-5.24-1.8-7.92-1.51-4.09.5-7.36,3.37-10.42,6.2-1.31,1.26-3.2,2.82-2.44,4.89.23.61.58,1.3.88,1.96.89,1.92,1.86,4.07,2.74,6.01.22.42.57,1.5.93,1.72.48.29,1.01-.25,1.29-.68,1-1.84.91-4.25.02-6.13-.44-1.04-1.37-1.76-1.59-2.93-.2-1.32,1.12-1.98,1.9-2.71,1.7-1.33,3.38-2.72,5.32-3.65,2.4-1.06,4.67-.11,5.33,2.65,0,0,.64,2.14.64,2.14,2.38,7.27-.77,7.53-6.3,9.48,0,0-3.98,1.38-3.98,1.38-.33.11-.55.22-.62.34-.35.7.13,1.71.7,2.23.95.9,2.28,1.13,3.55.92,1.32-.19,2.61-.75,4-1.11,1.38-.35,2.77-.55,4.16-.73,1.39-.18,2.78-.33,4.17-.42v.14h.01Z"/>
            </g>
            <g class="cls-7">
              <path class="cls-6" d="M267.1,6c-6.13-.11-12.26-1.4-17.97-3.82-.66-.26-1.44-.66-2.07-.87-.6-.21-.95.2-.84.31.03.29.75.92,1.28,1.4,2.84,2.58,6.22,4.29,9.96,5.12v.14c-3.1.09-6.24-.91-8.92-2.68-1.01-.66-1.94-1.45-2.79-2.34-.29-.32-.65-.69-.79-1.37-.21-1.04.76-1.94,1.69-1.88.67,0,1.31.4,1.84.66,3.07,1.56,6.3,2.77,9.61,3.64,2.94.8,5.95,1.32,9,1.56v.14h0Z"/>
            </g>
            <g class="cls-7">
              <path class="cls-6" d="M255.58,8.27c-3.73.55-7.57.46-11.29-.28-1.47-.32-2.88-.57-4.37-.46-.73.04-1.45.12-1.93.44-1.06.77-.18,2.31.87,2.65,4.23,1.22,8.71,1.57,13.13,1.91,0,0,0,.14,0,.14-2.99.56-6.06.58-9.08.24-1.93-.34-4.11-.34-5.67-1.85-1.07-1.06-1.2-3.24.21-4.03.84-.49,1.68-.48,2.44-.5,2.3-.09,4.5.77,6.74,1.15,2.94.54,5.94.68,8.93.45v.14h.01Z"/>
            </g>
            <g class="cls-7">
              <path class="cls-6" d="M251.42,12.33c-2.64,1.38-5.51,2.28-8.45,2.69-1.46.19-2.92.3-4.3.67-1.73.36-5.41,2.63-2.1,3.88,3.07.91,6.31.51,9.42-.13,1.42-.3,2.85-.66,4.3-.96l.04.13c-4.29,2.13-9.45,4-14.18,2.17-1.28-.48-2.59-1.99-1.72-3.47.92-1.45,2.53-2.13,4.05-2.48,1.49-.32,2.97-.36,4.42-.48,2.89-.22,5.75-.95,8.46-2.13l.05.13h0Z"/>
            </g>
            <g class="cls-7">
              <path class="cls-6" d="M255.92,17.12c.12.18.33.22.54.21.65-.08,1.33-.31,1.98-.47,1.77-.41,3.49-1.1,5.24-1.53.87-.17,1.69-.32,2.61-.6l.08.11c-1.09,1.8-3.25,2.16-5.08,2.37-1.37.22-2.75.36-4.13.43-.45.02-1.11.09-1.35-.43,0,0,.11-.07.11-.07h0Z"/>
            </g>
          </g>
        </g>
      </g>
      <g>
        <path class="cls-3" d="M15.58,28.71c-2.35-1.24-5.14-1.41-7.78-1.08-2.29.29-4.65.93-6.87.29,1.76,6.5,8.93,10.45,15.67,10.29,6.87-.16,2.54-7.62-1.02-9.5Z"/>
        <path class="cls-6" d="M15.53,28.8c-3.47-1.85-7.16-.19-10.8.16-1.28.11-2.68.02-3.96-.48l.72-.71c.54,4.19,4.31,7.11,8.15,8.3,2.21.84,9.73,2.33,9.67-.64.07-2.39-1.57-5.37-3.78-6.63h0ZM15.63,28.62c2.85,1.65,7.59,6.01,4.56,9.43-1.38,1.27-3.13,1.25-4.75,1.19-3.69-.26-7.3-1.66-10.03-4.16C2.99,32.95,1.14,30.25,0,27.17c0,0,1.09.18,1.09.18,2.4.35,4.67-.57,7.15-.56,2.56-.02,5.13.68,7.38,1.82h0Z"/>
      </g>
      <path class="cls-6" d="M11.61,30.16c3.4.89,6.44,3.25,8.14,6.33-2.77-2.19-5.33-4.18-8.14-6.33h0Z"/>
      <g>
        <path class="cls-3" d="M246.35,140.73c-1.38-3.4-4.64-5.97-8.27-6.52,3.93-.16,7.89.55,11.52,2.08,1.18-4.08,2.1-8.23,2.74-12.43.9,2.93,2.22,5.74,3.9,8.3,2.2-1.21,4.4-2.42,6.61-3.63-.13,2.81.7,5.65,2.31,7.96,2.01-3.04,4.88-5.5,8.19-7.03.39,2.86,1.5,5.61,3.19,7.95,1.96-2.18,4.64-3.71,7.51-4.29-.88,2.44-1.14,5.11-.73,7.68"/>
        <path class="cls-6" d="M246.25,140.77c-1.61-3.11-4.83-5.43-8.29-5.83,0,0,.08-1.47.08-1.47,4.04-.27,8.17.38,11.88,2.02,0,0-1.16.56-1.16.56,1.42-4.49,2.76-9.05,3.49-13.71.87,3.41,2.26,6.74,4.32,9.6,0,0-.53-.13-.53-.13l6.46-3.9,1.06-.64c-.16,3.05.53,6.21,2.36,8.68,0,0-1.55.02-1.55.02,1.03-1.61,2.29-3.07,3.72-4.34,1.76-1.61,3.93-2.78,6.11-3.74.22,1.8.51,3.68,1.19,5.37.49,1.27,1.12,2.49,1.89,3.61l-1.43-.07c2.38-2.58,5.71-4.05,9.16-4.42-.67,1.45-1.17,2.98-1.43,4.57-.21,1.25-.25,2.54-.16,3.84l-.2.03c-.63-2.58-.52-5.35.28-7.9,0,0,.67.78.67.78-3.09.77-5.74,2.71-7.67,5.18-2.19-2.65-3.75-5.84-4.21-9.27,0,0,1.5.82,1.5.82-1.57.71-3.02,1.67-4.36,2.76-1.7,1.37-3.09,3.14-4.28,4.96-1.13-1.58-2.16-3.33-2.61-5.22-.37-1.45-.53-2.95-.4-4.43l1.06.66-6.76,3.36-.34.17c-1.7-2.74-3.07-5.67-4.08-8.72,0,0,.66-.05.66-.05-.58,4.54-1.24,9.12-2.5,13.54-3.81-1.6-7.91-2.56-12.07-2.49,0,0,.08-1.47.08-1.47,3.81.71,7.12,3.53,8.25,7.22,0,0-.18.07-.18.07h0Z"/>
      </g>
    </g>
  </g>
</svg>